M48
METRIC,TZ
T1C0.600
T2C0.800
T3C1.000
T4C1.500
T5C2.500
T6C4.200
%
G90
G05
T1
X25000Y-44250
X25000Y-46550
X25000Y-48850
X25000Y-51150
X25000Y-53450
X25000Y-55750
X25000Y-58050
X25000Y-60350
X25000Y-62650
X25000Y-64950
X25000Y-67250
X25000Y-69550
X25000Y-71850
X25000Y-74150
X25000Y-76450
X25000Y-78750
X25000Y-81050
X25000Y-83350
X25000Y-85650
X25000Y-87950
X25000Y-90250
X25000Y-92550
X25000Y-94850
X25000Y-97150
X25000Y-99450
X25000Y-101750
X25000Y-104050
X25000Y-106350
X25000Y-108650
X25000Y-110950
X25000Y-113250
X25000Y-115550
X25000Y-117850
X25000Y-120150
X25000Y-122450
X25000Y-124750
X25000Y-127050
X25000Y-129350
X25000Y-131650
X25000Y-133950
X25000Y-136250
X25000Y-138550
X25000Y-140850
X28000Y-81000
X28000Y-84450
X28000Y-86750
X28000Y-89050
X28000Y-91350
X28000Y-93650
X28000Y-95950
X28000Y-98250
X28000Y-100550
X28000Y-102850
X28000Y-105150
X28000Y-107450
X28000Y-109750
X28000Y-112050
X28000Y-114350
X28000Y-116650
X28000Y-118950
X28000Y-121250
X28000Y-123550
X28000Y-125850
X28000Y-128150
X28000Y-130450
X28000Y-132750
X28500Y-140750
X29400Y-74000
X29750Y-79250
X30750Y-58250
X30750Y-134750
X31250Y-53750
X31500Y-78250
X31700Y-87750
X32000Y-140750
X32250Y-58250
X32250Y-65500
X32750Y-50500
X33000Y-134750
X33500Y-65500
X34000Y-87750
X34250Y-33250
X34500Y-78250
X34750Y-61500
X35250Y-134750
X35250Y-140750
X36000Y-112000
X36000Y-114300
X36000Y-116600
X36250Y-66750
X36300Y-87750
X36500Y-61500
X36550Y-33250
X37000Y-53250
X37500Y-78250
X37550Y-151500
X38000Y-134750
X38250Y-140000
X38850Y-33250
X39000Y-75000
X39500Y-133000
X39600Y-63300
X39850Y-151500
X40250Y-68000
X40300Y-55500
X40500Y-78500
X40500Y-80800
X40500Y-83100
X40500Y-85400
X40500Y-87700
X40500Y-90000
X40500Y-92300
X40500Y-94600
X40500Y-96900
X40500Y-99200
X40500Y-101500
X40500Y-103800
X40500Y-106100
X40500Y-108400
X40500Y-110700
X40500Y-113000
X40500Y-115300
X40500Y-117600
X40500Y-119900
X40500Y-122200
X40500Y-124500
X40500Y-126800
X40500Y-129100
X40750Y-137750
X41150Y-33250
X41250Y-51250
X41250Y-52500
X41250Y-75000
X41600Y-65600
X42050Y-55500
X42150Y-151500
X43000Y-130000
X43250Y-60200
X43300Y-64000
X43450Y-33250
X43750Y-40000
X43750Y-44000
X43750Y-46000
X43750Y-78250
X43750Y-134500
X44000Y-75000
X44450Y-151500
X45000Y-63950
X45250Y-60200
X45250Y-128000
X45750Y-33250
X45750Y-80250
X45750Y-82550
X45750Y-84850
X45750Y-87150
X45750Y-89450
X45750Y-91750
X45750Y-94050
X45750Y-96350
X45750Y-98650
X45750Y-100950
X45750Y-103250
X45750Y-105550
X45750Y-107850
X45750Y-110150
X45750Y-112450
X45750Y-114750
X45750Y-117050
X45750Y-119350
X45750Y-121650
X45750Y-123950
X46250Y-75000
X46250Y-132250
X46750Y-151500
X47000Y-78250
X47500Y-125750
X48050Y-33250
X48250Y-73250
X48750Y-129750
X49050Y-151500
X49250Y-67000
X49250Y-68750
X49500Y-123750
X49750Y-50250
X49750Y-71500
X50250Y-77250
X50250Y-79550
X50250Y-81850
X50250Y-84150
X50250Y-86450
X50250Y-88750
X50250Y-91050
X50250Y-93350
X50250Y-95650
X50250Y-97950
X50250Y-100250
X50250Y-102550
X50250Y-104850
X50250Y-107150
X50250Y-109450
X50250Y-111750
X50250Y-114050
X50250Y-116350
X50250Y-118650
X50350Y-33250
X50900Y-63200
X50900Y-64900
X51000Y-74500
X51250Y-127250
X51350Y-151500
X51500Y-40000
X52000Y-121250
X52500Y-50000
X52650Y-33250
X52750Y-72750
X53000Y-46750
X53000Y-55750
X53250Y-43250
X53650Y-151500
X53750Y-125250
X54250Y-53000
X54950Y-33250
X55250Y-46750
X55950Y-151500
X56250Y-124000
X56500Y-46750
X57250Y-33250
X57500Y-124000
X57750Y-73750
X57750Y-76000
X57750Y-100000
X57750Y-115000
X57750Y-117000
X58000Y-92000
X58250Y-151500
X58500Y-46750
X58500Y-146500
X59000Y-43250
X59000Y-64250
X59000Y-66000
X59550Y-33250
X59750Y-40250
X59750Y-46750
X60550Y-151500
X60800Y-146500
X61500Y-46750
X61515Y-70060
X61750Y-40250
X61785Y-125550
X61850Y-33250
X62000Y-55250
X62850Y-151500
X63100Y-146500
X63231Y-84975
X63250Y-74000
X63250Y-75750
X63250Y-116500
X63250Y-118000
X63500Y-55250
X63750Y-92000
X63750Y-99750
X63750Y-106750
X64150Y-33250
X65150Y-151500
X65250Y-58250
X65400Y-146500
X65500Y-65500
X66000Y-47000
X66000Y-50000
X66250Y-106500
X66450Y-33250
X66500Y-85500
X66750Y-79000
X67250Y-38000
X67250Y-62250
X67450Y-151500
X67700Y-146500
X68500Y-105000
X68750Y-33250
X68750Y-87250
X69700Y-52500
X69750Y-40750
X69750Y-151500
X70000Y-146500
X70250Y-62250
X70500Y-79250
X70500Y-80750
X70500Y-111250
X70500Y-112500
X70750Y-65500
X71050Y-33250
X71850Y-84875
X71900Y-107300
X72050Y-151500
X72300Y-146500
X72500Y-125000
X72700Y-44800
X72750Y-119500
X72750Y-120750
X73000Y-39750
X73350Y-33250
X73750Y-56750
X74000Y-48500
X74000Y-51000
X74100Y-44800
X74200Y-43200
X74350Y-151500
X74500Y-73250
X74600Y-146500
X75250Y-125000
X75650Y-33250
X75750Y-44500
X75900Y-84900
X75900Y-107300
X76500Y-46900
X76500Y-51000
X76581Y-39014
X76650Y-151500
X76700Y-43100
X76750Y-36750
X76900Y-146500
X77250Y-123750
X77400Y-115950
X77450Y-76050
X77508Y-49149
X77750Y-66000
X77950Y-33250
X78740Y-38964
X78765Y-36750
X78800Y-46900
X78829Y-51054
X78950Y-151500
X79000Y-59800
X79200Y-146500
X79500Y-122500
X79808Y-49149
X79900Y-107300
X79950Y-84925
X80000Y-112000
X80250Y-33250
X80500Y-69250
X80500Y-80250
X81100Y-46900
X81129Y-51054
X81250Y-151500
X81500Y-90750
X81500Y-101250
X81500Y-146500
X81701Y-53200
X82000Y-111250
X82000Y-120000
X82000Y-121250
X82108Y-49149
X82550Y-33250
X83000Y-80500
X83000Y-83750
X83000Y-86750
X83000Y-105250
X83000Y-108000
X83400Y-46900
X83429Y-51054
X83464Y-38125
X83500Y-40300
X83550Y-151500
X83600Y-57600
X83800Y-41900
X83800Y-146500
X84408Y-49149
X84850Y-33250
X85500Y-53000
X85700Y-46900
X85729Y-51054
X85850Y-151500
X86100Y-146500
X86166Y-40335
X86708Y-49149
X87150Y-33250
X88000Y-46900
X88029Y-51054
X88150Y-151500
X88400Y-146500
X88466Y-40335
X89008Y-49149
X89450Y-33250
X89500Y-53000
X90300Y-46900
X90329Y-51054
X90450Y-151500
X90700Y-146500
X90766Y-40335
X91000Y-42000
X91100Y-38500
X91308Y-49149
X91750Y-33250
X92250Y-111250
X92600Y-46900
X92629Y-51054
X92750Y-151500
X93000Y-146500
X93066Y-40335
X93608Y-49149
X94050Y-33250
X94900Y-46900
X94929Y-51054
X95000Y-111250
X95050Y-151500
X95300Y-146500
X95326Y-40361
X95908Y-49149
X96350Y-33250
X97100Y-40400
X97200Y-46900
X97229Y-51054
X97350Y-151500
X97500Y-53250
X97600Y-146500
X98208Y-49149
X98650Y-33250
X99500Y-46900
X99529Y-51054
X99650Y-151500
X99900Y-146500
X100508Y-49149
X100950Y-33250
X101625Y-47219
X101829Y-51054
X101950Y-151500
X102200Y-146500
X102667Y-45237
X103250Y-33250
X103759Y-43205
X104250Y-151500
X104500Y-146500
X104851Y-40742
X105550Y-33250
X106000Y-38000
X106550Y-151500
X106800Y-146500
X107850Y-33250
X108300Y-38000
X108850Y-151500
X109100Y-146500
X110150Y-33250
X110600Y-38000
X111150Y-151500
X111400Y-146500
X112450Y-33250
X112900Y-38000
X113450Y-151500
X113700Y-146500
X114750Y-33250
X115200Y-38000
X115750Y-151500
X116000Y-146500
X117050Y-33250
X117500Y-38000
X118050Y-151500
X118300Y-146500
X119350Y-33250
X119800Y-38000
X120350Y-151500
X120600Y-146500
X121650Y-33250
X122100Y-38000
X122650Y-151500
X122900Y-146500
X123950Y-33250
X124400Y-38000
X124950Y-151500
X125200Y-146500
X126250Y-33250
X126700Y-38000
X127250Y-151500
X127500Y-146500
X128550Y-33250
X129000Y-38000
X129550Y-151500
X129800Y-146500
X130850Y-33250
X131300Y-38000
X131850Y-151500
X132100Y-146500
X133150Y-33250
X133600Y-38000
X134150Y-151500
X134400Y-146500
X135450Y-33250
X135900Y-38000
X136450Y-151500
X136700Y-146500
X137750Y-33250
X138200Y-38000
X138750Y-151500
X139000Y-146500
X140050Y-33250
X140500Y-38000
X141050Y-151500
X141300Y-146500
X142350Y-33250
X142800Y-38000
X143350Y-151500
X143600Y-146500
X144650Y-33250
X145100Y-38000
X145650Y-151500
X145900Y-146500
X146950Y-33250
X147400Y-38000
X147950Y-151500
X148200Y-146500
X149250Y-33250
X149700Y-38000
X150250Y-151500
X150500Y-146500
X151550Y-33250
X152000Y-38000
X152550Y-151500
X153850Y-33250
X154300Y-38000
X154850Y-151500
X156150Y-33250
X156600Y-38000
X157150Y-151500
X158450Y-33250
X158900Y-38000
X159450Y-151500
X160750Y-33250
X161750Y-151500
X163050Y-33250
X165350Y-33250
X167650Y-33250
X169950Y-33250
X170750Y-151500
X172250Y-33250
X172500Y-38000
X173050Y-151500
X174550Y-33250
X174800Y-38000
X175350Y-151500
X176500Y-148000
X176850Y-33250
X177100Y-38000
X177650Y-151500
X178800Y-148000
X179150Y-33250
X179400Y-38000
X179950Y-151500
X181100Y-148000
X181450Y-33250
X181700Y-38000
X182250Y-151500
X183400Y-148000
X183750Y-33250
X184000Y-38000
X184550Y-151500
X185700Y-148000
X186050Y-33250
X186300Y-38000
X186850Y-151500
X188000Y-148000
X188350Y-33250
X188600Y-38000
X189150Y-151500
X190300Y-148000
X190650Y-33250
X190900Y-38000
X191450Y-151500
X192600Y-148000
X192950Y-33250
X193200Y-38000
X193750Y-151500
X194900Y-148000
X195250Y-33250
X195500Y-38000
X196050Y-151500
X197200Y-148000
X197550Y-33250
X197800Y-38000
X198350Y-151500
X199500Y-148000
X199850Y-33250
X200100Y-38000
X200650Y-151500
X201800Y-148000
X202150Y-33250
X202400Y-38000
X202950Y-151500
X204100Y-148000
X204450Y-33250
X204700Y-38000
X205250Y-151500
X206400Y-148000
X206750Y-33250
X207000Y-38000
X207550Y-151500
X208700Y-148000
X209050Y-33250
X209300Y-38000
X209850Y-151500
X211000Y-148000
X211350Y-33250
X211600Y-38000
X212150Y-151500
X213300Y-148000
X213650Y-33250
X213900Y-38000
X214450Y-151500
X215600Y-148000
X215950Y-33250
X216200Y-38000
X216750Y-151500
X217900Y-148000
X218250Y-33250
X218500Y-38000
X219050Y-151500
X220200Y-148000
X220550Y-33250
X220800Y-38000
X221350Y-151500
X222500Y-148000
X222850Y-33250
X223100Y-38000
X223650Y-151500
X224800Y-148000
X225150Y-33250
X225400Y-38000
X225950Y-151500
X226000Y-39750
X226000Y-41500
X226000Y-43800
X227100Y-148000
X227450Y-33250
X227700Y-38000
X227750Y-60000
X227750Y-62250
X227750Y-65250
X227750Y-67000
X228250Y-151500
X229400Y-148000
X229750Y-33250
X230250Y-49750
X230250Y-51250
X230250Y-52750
X230550Y-151500
X231700Y-148000
X232050Y-33250
X232850Y-151500
X234350Y-33250
X235150Y-151500
X236000Y-35500
X236000Y-37250
X236650Y-33250
X237450Y-151500
X238950Y-33250
X239750Y-151500
X241250Y-33250
X242050Y-151500
X243550Y-33250
X244350Y-151500
X245500Y-35750
X245500Y-37500
X245850Y-33250
X246650Y-151500
X248150Y-33250
X248950Y-151500
X250450Y-33250
X251250Y-151500
X252750Y-33250
X253550Y-151500
X255050Y-33250
X255850Y-151500
X257350Y-33250
X258150Y-151500
X259650Y-33250
X260450Y-151500
X261950Y-33250
X262750Y-151500
X264250Y-33250
X265050Y-151500
X275750Y-45500
X275750Y-47800
X275750Y-50100
X275750Y-52400
X275750Y-54700
X275750Y-57000
X275750Y-59300
X275750Y-61600
X275750Y-63900
X275750Y-66200
X275750Y-68500
X276250Y-93200
X276250Y-95500
X276250Y-97800
X276250Y-100100
X276250Y-102400
X276250Y-104700
X276250Y-107000
X276250Y-109300
X276250Y-111600
X276250Y-113900
X276250Y-116200
X276250Y-118500
X276250Y-120800
X276250Y-123100
X276250Y-125400
X276250Y-127700
X276250Y-130000
X276250Y-132300
X276250Y-134600
X276250Y-136900
X276250Y-139200
X276250Y-141500
X278750Y-37550
X278750Y-39850
X278750Y-42150
X278750Y-44450
X278750Y-46750
X278750Y-49050
X278750Y-51350
X278750Y-53650
X278750Y-55950
X278750Y-58250
X278750Y-60550
X278750Y-62850
X278750Y-65150
X278750Y-67450
X278750Y-69750
X278750Y-94700
X278750Y-97000
X278750Y-99300
X278750Y-101600
X278750Y-103900
X278750Y-106200
X278750Y-108500
X278750Y-110800
X278750Y-113100
X278750Y-115400
X278750Y-117700
X278750Y-120000
X278750Y-122300
X278750Y-124600
X278750Y-126900
X278750Y-129200
X278750Y-131500
X278750Y-133800
X278750Y-136100
X278750Y-138400
X278750Y-140700
X278750Y-143000
T2
X81750Y-117440
X81800Y-74560
X94750Y-54000
T3
X48750Y-141750
X52333Y-141750
X55917Y-141750
X59000Y-95750
X59500Y-141750
X63083Y-141750
X63250Y-95750
X66667Y-141750
X68600Y-95800
X70250Y-141750
X73000Y-95750
X73833Y-141750
X76000Y-95750
X77417Y-141750
X79000Y-95750
X81000Y-141750
X81750Y-95750
X82000Y-124250
X82000Y-127750
X82000Y-131750
X82000Y-135500
X82600Y-62200
X82600Y-65000
X82600Y-68000
X82600Y-71200
X84583Y-141750
X84750Y-94500
X84750Y-97000
X84900Y-109500
X85000Y-81600
X88000Y-89800
X88000Y-94500
X88000Y-97000
X88000Y-101300
X88167Y-141750
X91000Y-103100
X91200Y-88500
X91500Y-81500
X91500Y-84500
X91500Y-106500
X91500Y-108750
X91750Y-141750
X95333Y-141750
X95500Y-103000
X96000Y-88500
X98917Y-141750
X101300Y-92800
X101300Y-95900
X102500Y-141750
X103900Y-94200
X105750Y-115750
X105750Y-120750
X105750Y-126000
X105750Y-130750
X105750Y-135500
X106500Y-141750
X106750Y-50000
X107150Y-63350
X107150Y-67350
X107150Y-71850
X107150Y-75600
X107400Y-54600
X107400Y-58850
X109333Y-115750
X109333Y-126000
X109333Y-135500
X110083Y-141750
X110333Y-50000
X112917Y-115750
X112917Y-126000
X112917Y-135500
X113667Y-67250
X113667Y-141750
X113917Y-50000
X113917Y-58750
X116500Y-115750
X116500Y-126000
X116500Y-135500
X117250Y-67250
X117250Y-141750
X117500Y-50000
X117500Y-58750
X120083Y-115750
X120083Y-126000
X120083Y-135500
X120833Y-67250
X120833Y-141750
X121083Y-50000
X121083Y-58750
X123667Y-115750
X123667Y-126000
X123667Y-135500
X124417Y-67250
X124417Y-141750
X124667Y-50000
X124667Y-58750
X127250Y-115750
X127250Y-126000
X127250Y-135500
X128000Y-67250
X128000Y-141750
X128250Y-50000
X128250Y-58750
X130833Y-115750
X130833Y-126000
X130833Y-135500
X131583Y-67250
X131583Y-141750
X131833Y-50000
X131833Y-58750
X134417Y-115750
X134417Y-126000
X134417Y-135500
X135167Y-67250
X135167Y-141750
X135417Y-50000
X135417Y-58750
X138000Y-115750
X138000Y-126000
X138000Y-135500
X138750Y-67250
X138750Y-141750
X139000Y-50000
X139000Y-58750
X141583Y-115750
X141583Y-126000
X141583Y-135500
X142333Y-67250
X142333Y-141750
X142583Y-50000
X142583Y-58750
X145167Y-115750
X145167Y-126000
X145167Y-135500
X145917Y-67250
X145917Y-141750
X146167Y-50000
X146167Y-58750
X148750Y-115750
X148750Y-126000
X148750Y-135500
X149500Y-67250
X149500Y-141750
X149750Y-50000
X149750Y-58750
X152333Y-115750
X152333Y-126000
X152333Y-135500
X153083Y-67250
X153083Y-141750
X153333Y-50000
X153333Y-58750
X155917Y-115750
X155917Y-126000
X155917Y-135500
X156667Y-67250
X156667Y-141750
X156917Y-50000
X156917Y-58750
X159500Y-115750
X159500Y-126000
X159500Y-135500
X160250Y-67250
X160250Y-141750
X160500Y-50000
X160500Y-58750
X162100Y-112200
X164500Y-109300
X166900Y-106400
X169000Y-62250
X169250Y-53000
X169600Y-104000
X172583Y-62250
X172833Y-53000
X173000Y-103250
X176167Y-62250
X176417Y-53000
X176583Y-103250
X179750Y-62250
X180000Y-53000
X180167Y-103250
X183333Y-62250
X183583Y-53000
X183750Y-103250
X186750Y-113000
X186917Y-62250
X187167Y-53000
X187333Y-103250
X187750Y-141250
X190333Y-113000
X190500Y-62250
X190750Y-53000
X190917Y-103250
X191333Y-141250
X193917Y-113000
X194083Y-62250
X194333Y-53000
X194500Y-103250
X194800Y-73400
X194800Y-83000
X194917Y-141250
X197500Y-113000
X197667Y-62250
X197917Y-53000
X198083Y-103250
X198383Y-73400
X198383Y-83000
X198500Y-141250
X201083Y-113000
X201250Y-62250
X201500Y-53000
X201667Y-103250
X201967Y-73400
X201967Y-83000
X202083Y-141250
X204667Y-113000
X204833Y-62250
X205083Y-53000
X205250Y-103250
X205550Y-73400
X205550Y-83000
X205667Y-141250
X208250Y-113000
X208417Y-62250
X208667Y-53000
X208833Y-103250
X209250Y-141250
X211833Y-113000
X212000Y-62250
X212250Y-53000
X212417Y-103250
X212833Y-141250
X214250Y-98250
X215417Y-113000
X215583Y-62250
X215833Y-53000
X216000Y-103250
X216417Y-141250
X217833Y-98250
X219167Y-62250
X219417Y-53000
X219583Y-103250
X221417Y-98250
X222750Y-62250
X223000Y-53000
X223167Y-103250
X225000Y-98250
X226750Y-103250
X227833Y-90750
X228583Y-98250
X231417Y-90750
X232167Y-98250
X235000Y-90750
X235750Y-98250
X238583Y-90750
X239300Y-56050
X239317Y-49850
X239333Y-98250
X242167Y-90750
X242883Y-56050
X242900Y-49850
X242917Y-98250
X243450Y-69950
X243450Y-73533
X245750Y-90750
X246500Y-98250
X248400Y-145600
X249333Y-90750
X250083Y-98250
X251983Y-145600
X252917Y-90750
X253667Y-98250
X255567Y-145600
X256500Y-90750
X257000Y-133500
X257200Y-74450
X257200Y-78033
X257200Y-81617
X257200Y-85200
X257250Y-98250
X259000Y-39333
X259000Y-42917
X259000Y-46500
X259000Y-50083
X259000Y-53667
X259000Y-57250
X259000Y-60833
X259000Y-64417
X259000Y-68000
X259150Y-145600
X260583Y-133500
X260833Y-98250
X264167Y-133500
X264417Y-98250
X267750Y-133500
X268000Y-51400
X268000Y-54983
X268000Y-58567
X268000Y-62150
X268000Y-98250
T4
X94050Y-83800
X94050Y-108000
T5
X256790Y-128000
X256790Y-138800
X262000Y-128000
X262000Y-138800
X267210Y-128000
X267210Y-138800
T6
X31000Y-41000
X31000Y-147000
X95000Y-95750
X166000Y-41000
X166000Y-147000
X199000Y-96000
X271000Y-41000
X271000Y-147000
M30
