M48
; DRILL file {KiCad 8.0.4} date 2024-09-14T13:16:13+0930
; FORMAT={-:-/ absolute / metric / decimal}
; #@! TF.CreationDate,2024-09-14T13:16:13+09:30
; #@! TF.GenerationSoftware,Kicad,Pcbnew,8.0.4
; #@! TF.FileFunction,Plated,1,2,PTH
FMAT,2
METRIC
; #@! TA.AperFunction,Plated,PTH,ViaDrill
T1C0.600
; #@! TA.AperFunction,Plated,PTH,ComponentDrill
T2C0.800
; #@! TA.AperFunction,Plated,PTH,ViaDrill
T3C1.000
; #@! TA.AperFunction,Plated,PTH,ComponentDrill
T4C1.500
; #@! TA.AperFunction,Plated,PTH,ComponentDrill
T5C2.500
; #@! TA.AperFunction,Plated,PTH,ViaDrill
T6C4.200
%
G90
G05
T1
X25.0Y-44.25
X25.0Y-46.55
X25.0Y-48.85
X25.0Y-51.15
X25.0Y-53.45
X25.0Y-55.75
X25.0Y-58.05
X25.0Y-60.35
X25.0Y-62.65
X25.0Y-64.95
X25.0Y-67.25
X25.0Y-69.55
X25.0Y-71.85
X25.0Y-74.15
X25.0Y-76.45
X25.0Y-78.75
X25.0Y-81.05
X25.0Y-83.35
X25.0Y-85.65
X25.0Y-87.95
X25.0Y-90.25
X25.0Y-92.55
X25.0Y-94.85
X25.0Y-97.15
X25.0Y-99.45
X25.0Y-101.75
X25.0Y-104.05
X25.0Y-106.35
X25.0Y-108.65
X25.0Y-110.95
X25.0Y-113.25
X25.0Y-115.55
X25.0Y-117.85
X25.0Y-120.15
X25.0Y-122.45
X25.0Y-124.75
X25.0Y-127.05
X25.0Y-129.35
X25.0Y-131.65
X25.0Y-133.95
X25.0Y-136.25
X25.0Y-138.55
X25.0Y-140.85
X28.0Y-81.0
X28.0Y-84.45
X28.0Y-86.75
X28.0Y-89.05
X28.0Y-91.35
X28.0Y-93.65
X28.0Y-95.95
X28.0Y-98.25
X28.0Y-100.55
X28.0Y-102.85
X28.0Y-105.15
X28.0Y-107.45
X28.0Y-109.75
X28.0Y-112.05
X28.0Y-114.35
X28.0Y-116.65
X28.0Y-118.95
X28.0Y-121.25
X28.0Y-123.55
X28.0Y-125.85
X28.0Y-128.15
X28.0Y-130.45
X28.0Y-132.75
X28.5Y-140.75
X29.4Y-74.0
X29.75Y-79.25
X30.75Y-58.25
X30.75Y-134.75
X31.25Y-53.75
X31.5Y-78.25
X31.7Y-87.75
X32.0Y-140.75
X32.25Y-58.25
X32.25Y-65.5
X32.75Y-50.5
X33.0Y-134.75
X33.5Y-65.5
X34.0Y-87.75
X34.25Y-33.25
X34.5Y-78.25
X34.75Y-61.5
X35.25Y-134.75
X35.25Y-140.75
X36.0Y-112.0
X36.0Y-114.3
X36.0Y-116.6
X36.25Y-66.75
X36.3Y-87.75
X36.5Y-61.5
X36.55Y-33.25
X37.0Y-53.25
X37.5Y-78.25
X37.55Y-151.5
X38.0Y-134.75
X38.25Y-140.0
X38.85Y-33.25
X39.0Y-75.0
X39.5Y-133.0
X39.6Y-63.3
X39.85Y-151.5
X40.25Y-68.0
X40.3Y-55.5
X40.5Y-78.5
X40.5Y-80.8
X40.5Y-83.1
X40.5Y-85.4
X40.5Y-87.7
X40.5Y-90.0
X40.5Y-92.3
X40.5Y-94.6
X40.5Y-96.9
X40.5Y-99.2
X40.5Y-101.5
X40.5Y-103.8
X40.5Y-106.1
X40.5Y-108.4
X40.5Y-110.7
X40.5Y-113.0
X40.5Y-115.3
X40.5Y-117.6
X40.5Y-119.9
X40.5Y-122.2
X40.5Y-124.5
X40.5Y-126.8
X40.5Y-129.1
X40.75Y-137.75
X41.15Y-33.25
X41.25Y-51.25
X41.25Y-52.5
X41.25Y-75.0
X41.6Y-65.6
X42.05Y-55.5
X42.15Y-151.5
X43.0Y-130.0
X43.25Y-60.2
X43.3Y-64.0
X43.45Y-33.25
X43.75Y-40.0
X43.75Y-44.0
X43.75Y-46.0
X43.75Y-78.25
X43.75Y-134.5
X44.0Y-75.0
X44.45Y-151.5
X45.0Y-63.95
X45.25Y-60.2
X45.25Y-128.0
X45.75Y-33.25
X45.75Y-80.25
X45.75Y-82.55
X45.75Y-84.85
X45.75Y-87.15
X45.75Y-89.45
X45.75Y-91.75
X45.75Y-94.05
X45.75Y-96.35
X45.75Y-98.65
X45.75Y-100.95
X45.75Y-103.25
X45.75Y-105.55
X45.75Y-107.85
X45.75Y-110.15
X45.75Y-112.45
X45.75Y-114.75
X45.75Y-117.05
X45.75Y-119.35
X45.75Y-121.65
X45.75Y-123.95
X46.25Y-75.0
X46.25Y-132.25
X46.75Y-151.5
X47.0Y-78.25
X47.5Y-125.75
X48.05Y-33.25
X48.25Y-73.25
X48.75Y-129.75
X49.05Y-151.5
X49.25Y-67.0
X49.25Y-68.75
X49.5Y-123.75
X49.75Y-50.25
X49.75Y-71.5
X50.25Y-77.25
X50.25Y-79.55
X50.25Y-81.85
X50.25Y-84.15
X50.25Y-86.45
X50.25Y-88.75
X50.25Y-91.05
X50.25Y-93.35
X50.25Y-95.65
X50.25Y-97.95
X50.25Y-100.25
X50.25Y-102.55
X50.25Y-104.85
X50.25Y-107.15
X50.25Y-109.45
X50.25Y-111.75
X50.25Y-114.05
X50.25Y-116.35
X50.25Y-118.65
X50.35Y-33.25
X50.9Y-63.2
X50.9Y-64.9
X51.0Y-74.5
X51.25Y-127.25
X51.35Y-151.5
X51.5Y-40.0
X52.0Y-121.25
X52.5Y-50.0
X52.65Y-33.25
X52.75Y-72.75
X53.0Y-46.75
X53.0Y-55.75
X53.25Y-43.25
X53.65Y-151.5
X53.75Y-125.25
X54.25Y-53.0
X54.95Y-33.25
X55.25Y-46.75
X55.95Y-151.5
X56.25Y-124.0
X56.5Y-46.75
X57.25Y-33.25
X57.5Y-124.0
X57.75Y-73.75
X57.75Y-76.0
X57.75Y-100.0
X57.75Y-115.0
X57.75Y-117.0
X58.0Y-92.0
X58.25Y-151.5
X58.5Y-46.75
X58.5Y-146.5
X59.0Y-43.25
X59.0Y-64.25
X59.0Y-66.0
X59.55Y-33.25
X59.75Y-40.25
X59.75Y-46.75
X60.55Y-151.5
X60.8Y-146.5
X61.5Y-46.75
X61.515Y-70.06
X61.75Y-40.25
X61.785Y-125.55
X61.85Y-33.25
X62.0Y-55.25
X62.85Y-151.5
X63.1Y-146.5
X63.231Y-84.975
X63.25Y-74.0
X63.25Y-75.75
X63.25Y-116.5
X63.25Y-118.0
X63.5Y-55.25
X63.75Y-92.0
X63.75Y-99.75
X63.75Y-106.75
X64.15Y-33.25
X65.15Y-151.5
X65.25Y-58.25
X65.4Y-146.5
X65.5Y-65.5
X66.0Y-47.0
X66.0Y-50.0
X66.25Y-106.5
X66.45Y-33.25
X66.5Y-85.5
X66.75Y-79.0
X67.25Y-38.0
X67.25Y-62.25
X67.45Y-151.5
X67.7Y-146.5
X68.5Y-105.0
X68.75Y-33.25
X68.75Y-87.25
X69.7Y-52.5
X69.75Y-40.75
X69.75Y-151.5
X70.0Y-146.5
X70.25Y-62.25
X70.5Y-79.25
X70.5Y-80.75
X70.5Y-111.25
X70.5Y-112.5
X70.75Y-65.5
X71.05Y-33.25
X71.85Y-84.875
X71.9Y-107.3
X72.05Y-151.5
X72.3Y-146.5
X72.5Y-125.0
X72.7Y-44.8
X72.75Y-119.5
X72.75Y-120.75
X73.0Y-39.75
X73.35Y-33.25
X73.75Y-56.75
X74.0Y-48.5
X74.0Y-51.0
X74.1Y-44.8
X74.2Y-43.2
X74.35Y-151.5
X74.5Y-73.25
X74.6Y-146.5
X75.25Y-125.0
X75.65Y-33.25
X75.75Y-44.5
X75.9Y-84.9
X75.9Y-107.3
X76.5Y-46.9
X76.5Y-51.0
X76.581Y-39.014
X76.65Y-151.5
X76.7Y-43.1
X76.75Y-36.75
X76.9Y-146.5
X77.25Y-123.75
X77.4Y-115.95
X77.45Y-76.05
X77.508Y-49.149
X77.75Y-66.0
X77.95Y-33.25
X78.74Y-38.964
X78.765Y-36.75
X78.8Y-46.9
X78.829Y-51.054
X78.95Y-151.5
X79.0Y-59.8
X79.2Y-146.5
X79.5Y-122.5
X79.808Y-49.149
X79.9Y-107.3
X79.95Y-84.925
X80.0Y-112.0
X80.25Y-33.25
X80.5Y-69.25
X80.5Y-80.25
X81.1Y-46.9
X81.129Y-51.054
X81.25Y-151.5
X81.5Y-90.75
X81.5Y-101.25
X81.5Y-146.5
X81.701Y-53.2
X82.0Y-111.25
X82.0Y-120.0
X82.0Y-121.25
X82.108Y-49.149
X82.55Y-33.25
X83.0Y-80.5
X83.0Y-83.75
X83.0Y-86.75
X83.0Y-105.25
X83.0Y-108.0
X83.4Y-46.9
X83.429Y-51.054
X83.464Y-38.125
X83.5Y-40.3
X83.55Y-151.5
X83.6Y-57.6
X83.8Y-41.9
X83.8Y-146.5
X84.408Y-49.149
X84.85Y-33.25
X85.5Y-53.0
X85.7Y-46.9
X85.729Y-51.054
X85.85Y-151.5
X86.1Y-146.5
X86.166Y-40.335
X86.708Y-49.149
X87.15Y-33.25
X88.0Y-46.9
X88.029Y-51.054
X88.15Y-151.5
X88.4Y-146.5
X88.466Y-40.335
X89.008Y-49.149
X89.45Y-33.25
X89.5Y-53.0
X90.3Y-46.9
X90.329Y-51.054
X90.45Y-151.5
X90.7Y-146.5
X90.766Y-40.335
X91.0Y-42.0
X91.1Y-38.5
X91.308Y-49.149
X91.75Y-33.25
X92.25Y-111.25
X92.6Y-46.9
X92.629Y-51.054
X92.75Y-151.5
X93.0Y-146.5
X93.066Y-40.335
X93.608Y-49.149
X94.05Y-33.25
X94.9Y-46.9
X94.929Y-51.054
X95.0Y-111.25
X95.05Y-151.5
X95.3Y-146.5
X95.326Y-40.361
X95.908Y-49.149
X96.35Y-33.25
X97.1Y-40.4
X97.2Y-46.9
X97.229Y-51.054
X97.35Y-151.5
X97.5Y-53.25
X97.6Y-146.5
X98.208Y-49.149
X98.65Y-33.25
X99.5Y-46.9
X99.529Y-51.054
X99.65Y-151.5
X99.9Y-146.5
X100.508Y-49.149
X100.95Y-33.25
X101.625Y-47.219
X101.829Y-51.054
X101.95Y-151.5
X102.2Y-146.5
X102.667Y-45.237
X103.25Y-33.25
X103.759Y-43.205
X104.25Y-151.5
X104.5Y-146.5
X104.851Y-40.742
X105.55Y-33.25
X106.0Y-38.0
X106.55Y-151.5
X106.8Y-146.5
X107.85Y-33.25
X108.3Y-38.0
X108.85Y-151.5
X109.1Y-146.5
X110.15Y-33.25
X110.6Y-38.0
X111.15Y-151.5
X111.4Y-146.5
X112.45Y-33.25
X112.9Y-38.0
X113.45Y-151.5
X113.7Y-146.5
X114.75Y-33.25
X115.2Y-38.0
X115.75Y-151.5
X116.0Y-146.5
X117.05Y-33.25
X117.5Y-38.0
X118.05Y-151.5
X118.3Y-146.5
X119.35Y-33.25
X119.8Y-38.0
X120.35Y-151.5
X120.6Y-146.5
X121.65Y-33.25
X122.1Y-38.0
X122.65Y-151.5
X122.9Y-146.5
X123.95Y-33.25
X124.4Y-38.0
X124.95Y-151.5
X125.2Y-146.5
X126.25Y-33.25
X126.7Y-38.0
X127.25Y-151.5
X127.5Y-146.5
X128.55Y-33.25
X129.0Y-38.0
X129.55Y-151.5
X129.8Y-146.5
X130.85Y-33.25
X131.3Y-38.0
X131.85Y-151.5
X132.1Y-146.5
X133.15Y-33.25
X133.6Y-38.0
X134.15Y-151.5
X134.4Y-146.5
X135.45Y-33.25
X135.9Y-38.0
X136.45Y-151.5
X136.7Y-146.5
X137.75Y-33.25
X138.2Y-38.0
X138.75Y-151.5
X139.0Y-146.5
X140.05Y-33.25
X140.5Y-38.0
X141.05Y-151.5
X141.3Y-146.5
X142.35Y-33.25
X142.8Y-38.0
X143.35Y-151.5
X143.6Y-146.5
X144.65Y-33.25
X145.1Y-38.0
X145.65Y-151.5
X145.9Y-146.5
X146.95Y-33.25
X147.4Y-38.0
X147.95Y-151.5
X148.2Y-146.5
X149.25Y-33.25
X149.7Y-38.0
X150.25Y-151.5
X150.5Y-146.5
X151.55Y-33.25
X152.0Y-38.0
X152.55Y-151.5
X153.85Y-33.25
X154.3Y-38.0
X154.85Y-151.5
X156.15Y-33.25
X156.6Y-38.0
X157.15Y-151.5
X158.45Y-33.25
X158.9Y-38.0
X159.45Y-151.5
X160.75Y-33.25
X161.75Y-151.5
X163.05Y-33.25
X165.35Y-33.25
X167.65Y-33.25
X169.95Y-33.25
X170.75Y-151.5
X172.25Y-33.25
X172.5Y-38.0
X173.05Y-151.5
X174.55Y-33.25
X174.8Y-38.0
X175.35Y-151.5
X176.5Y-148.0
X176.85Y-33.25
X177.1Y-38.0
X177.65Y-151.5
X178.8Y-148.0
X179.15Y-33.25
X179.4Y-38.0
X179.95Y-151.5
X181.1Y-148.0
X181.45Y-33.25
X181.7Y-38.0
X182.25Y-151.5
X183.4Y-148.0
X183.75Y-33.25
X184.0Y-38.0
X184.55Y-151.5
X185.7Y-148.0
X186.05Y-33.25
X186.3Y-38.0
X186.85Y-151.5
X188.0Y-148.0
X188.35Y-33.25
X188.6Y-38.0
X189.15Y-151.5
X190.3Y-148.0
X190.65Y-33.25
X190.9Y-38.0
X191.45Y-151.5
X192.6Y-148.0
X192.95Y-33.25
X193.2Y-38.0
X193.75Y-151.5
X194.9Y-148.0
X195.25Y-33.25
X195.5Y-38.0
X196.05Y-151.5
X197.2Y-148.0
X197.55Y-33.25
X197.8Y-38.0
X198.35Y-151.5
X199.5Y-148.0
X199.85Y-33.25
X200.1Y-38.0
X200.65Y-151.5
X201.8Y-148.0
X202.15Y-33.25
X202.4Y-38.0
X202.95Y-151.5
X204.1Y-148.0
X204.45Y-33.25
X204.7Y-38.0
X205.25Y-151.5
X206.4Y-148.0
X206.75Y-33.25
X207.0Y-38.0
X207.55Y-151.5
X208.7Y-148.0
X209.05Y-33.25
X209.3Y-38.0
X209.85Y-151.5
X211.0Y-148.0
X211.35Y-33.25
X211.6Y-38.0
X212.15Y-151.5
X213.3Y-148.0
X213.65Y-33.25
X213.9Y-38.0
X214.45Y-151.5
X215.6Y-148.0
X215.95Y-33.25
X216.2Y-38.0
X216.75Y-151.5
X217.9Y-148.0
X218.25Y-33.25
X218.5Y-38.0
X219.05Y-151.5
X220.2Y-148.0
X220.55Y-33.25
X220.8Y-38.0
X221.35Y-151.5
X222.5Y-148.0
X222.85Y-33.25
X223.1Y-38.0
X223.65Y-151.5
X224.8Y-148.0
X225.15Y-33.25
X225.4Y-38.0
X225.95Y-151.5
X226.0Y-39.75
X226.0Y-41.5
X226.0Y-43.8
X227.1Y-148.0
X227.45Y-33.25
X227.7Y-38.0
X227.75Y-60.0
X227.75Y-62.25
X227.75Y-65.25
X227.75Y-67.0
X228.25Y-151.5
X229.4Y-148.0
X229.75Y-33.25
X230.25Y-49.75
X230.25Y-51.25
X230.25Y-52.75
X230.55Y-151.5
X231.7Y-148.0
X232.05Y-33.25
X232.85Y-151.5
X234.35Y-33.25
X235.15Y-151.5
X236.0Y-35.5
X236.0Y-37.25
X236.65Y-33.25
X237.45Y-151.5
X238.95Y-33.25
X239.75Y-151.5
X241.25Y-33.25
X242.05Y-151.5
X243.55Y-33.25
X244.35Y-151.5
X245.5Y-35.75
X245.5Y-37.5
X245.85Y-33.25
X246.65Y-151.5
X248.15Y-33.25
X248.95Y-151.5
X250.45Y-33.25
X251.25Y-151.5
X252.75Y-33.25
X253.55Y-151.5
X255.05Y-33.25
X255.85Y-151.5
X257.35Y-33.25
X258.15Y-151.5
X259.65Y-33.25
X260.45Y-151.5
X261.95Y-33.25
X262.75Y-151.5
X264.25Y-33.25
X265.05Y-151.5
X275.75Y-45.5
X275.75Y-47.8
X275.75Y-50.1
X275.75Y-52.4
X275.75Y-54.7
X275.75Y-57.0
X275.75Y-59.3
X275.75Y-61.6
X275.75Y-63.9
X275.75Y-66.2
X275.75Y-68.5
X276.25Y-93.2
X276.25Y-95.5
X276.25Y-97.8
X276.25Y-100.1
X276.25Y-102.4
X276.25Y-104.7
X276.25Y-107.0
X276.25Y-109.3
X276.25Y-111.6
X276.25Y-113.9
X276.25Y-116.2
X276.25Y-118.5
X276.25Y-120.8
X276.25Y-123.1
X276.25Y-125.4
X276.25Y-127.7
X276.25Y-130.0
X276.25Y-132.3
X276.25Y-134.6
X276.25Y-136.9
X276.25Y-139.2
X276.25Y-141.5
X278.75Y-37.55
X278.75Y-39.85
X278.75Y-42.15
X278.75Y-44.45
X278.75Y-46.75
X278.75Y-49.05
X278.75Y-51.35
X278.75Y-53.65
X278.75Y-55.95
X278.75Y-58.25
X278.75Y-60.55
X278.75Y-62.85
X278.75Y-65.15
X278.75Y-67.45
X278.75Y-69.75
X278.75Y-94.7
X278.75Y-97.0
X278.75Y-99.3
X278.75Y-101.6
X278.75Y-103.9
X278.75Y-106.2
X278.75Y-108.5
X278.75Y-110.8
X278.75Y-113.1
X278.75Y-115.4
X278.75Y-117.7
X278.75Y-120.0
X278.75Y-122.3
X278.75Y-124.6
X278.75Y-126.9
X278.75Y-129.2
X278.75Y-131.5
X278.75Y-133.8
X278.75Y-136.1
X278.75Y-138.4
X278.75Y-140.7
X278.75Y-143.0
T2
X81.75Y-117.44
X81.8Y-74.56
X94.75Y-54.0
T3
X48.75Y-141.75
X52.333Y-141.75
X55.917Y-141.75
X59.0Y-95.75
X59.5Y-141.75
X63.083Y-141.75
X63.25Y-95.75
X66.667Y-141.75
X68.6Y-95.8
X70.25Y-141.75
X73.0Y-95.75
X73.833Y-141.75
X76.0Y-95.75
X77.417Y-141.75
X79.0Y-95.75
X81.0Y-141.75
X81.75Y-95.75
X82.0Y-124.25
X82.0Y-127.75
X82.0Y-131.75
X82.0Y-135.5
X82.6Y-62.2
X82.6Y-65.0
X82.6Y-68.0
X82.6Y-71.2
X84.583Y-141.75
X84.75Y-94.5
X84.75Y-97.0
X84.9Y-109.5
X85.0Y-81.6
X88.0Y-89.8
X88.0Y-94.5
X88.0Y-97.0
X88.0Y-101.3
X88.167Y-141.75
X91.0Y-103.1
X91.2Y-88.5
X91.5Y-81.5
X91.5Y-84.5
X91.5Y-106.5
X91.5Y-108.75
X91.75Y-141.75
X95.333Y-141.75
X95.5Y-103.0
X96.0Y-88.5
X98.917Y-141.75
X101.3Y-92.8
X101.3Y-95.9
X102.5Y-141.75
X103.9Y-94.2
X105.75Y-115.75
X105.75Y-120.75
X105.75Y-126.0
X105.75Y-130.75
X105.75Y-135.5
X106.5Y-141.75
X106.75Y-50.0
X107.15Y-63.35
X107.15Y-67.35
X107.15Y-71.85
X107.15Y-75.6
X107.4Y-54.6
X107.4Y-58.85
X109.333Y-115.75
X109.333Y-126.0
X109.333Y-135.5
X110.083Y-141.75
X110.333Y-50.0
X112.917Y-115.75
X112.917Y-126.0
X112.917Y-135.5
X113.667Y-67.25
X113.667Y-141.75
X113.917Y-50.0
X113.917Y-58.75
X116.5Y-115.75
X116.5Y-126.0
X116.5Y-135.5
X117.25Y-67.25
X117.25Y-141.75
X117.5Y-50.0
X117.5Y-58.75
X120.083Y-115.75
X120.083Y-126.0
X120.083Y-135.5
X120.833Y-67.25
X120.833Y-141.75
X121.083Y-50.0
X121.083Y-58.75
X123.667Y-115.75
X123.667Y-126.0
X123.667Y-135.5
X124.417Y-67.25
X124.417Y-141.75
X124.667Y-50.0
X124.667Y-58.75
X127.25Y-115.75
X127.25Y-126.0
X127.25Y-135.5
X128.0Y-67.25
X128.0Y-141.75
X128.25Y-50.0
X128.25Y-58.75
X130.833Y-115.75
X130.833Y-126.0
X130.833Y-135.5
X131.583Y-67.25
X131.583Y-141.75
X131.833Y-50.0
X131.833Y-58.75
X134.417Y-115.75
X134.417Y-126.0
X134.417Y-135.5
X135.167Y-67.25
X135.167Y-141.75
X135.417Y-50.0
X135.417Y-58.75
X138.0Y-115.75
X138.0Y-126.0
X138.0Y-135.5
X138.75Y-67.25
X138.75Y-141.75
X139.0Y-50.0
X139.0Y-58.75
X141.583Y-115.75
X141.583Y-126.0
X141.583Y-135.5
X142.333Y-67.25
X142.333Y-141.75
X142.583Y-50.0
X142.583Y-58.75
X145.167Y-115.75
X145.167Y-126.0
X145.167Y-135.5
X145.917Y-67.25
X145.917Y-141.75
X146.167Y-50.0
X146.167Y-58.75
X148.75Y-115.75
X148.75Y-126.0
X148.75Y-135.5
X149.5Y-67.25
X149.5Y-141.75
X149.75Y-50.0
X149.75Y-58.75
X152.333Y-115.75
X152.333Y-126.0
X152.333Y-135.5
X153.083Y-67.25
X153.083Y-141.75
X153.333Y-50.0
X153.333Y-58.75
X155.917Y-115.75
X155.917Y-126.0
X155.917Y-135.5
X156.667Y-67.25
X156.667Y-141.75
X156.917Y-50.0
X156.917Y-58.75
X159.5Y-115.75
X159.5Y-126.0
X159.5Y-135.5
X160.25Y-67.25
X160.25Y-141.75
X160.5Y-50.0
X160.5Y-58.75
X162.1Y-112.2
X164.5Y-109.3
X166.9Y-106.4
X169.0Y-62.25
X169.25Y-53.0
X169.6Y-104.0
X172.583Y-62.25
X172.833Y-53.0
X173.0Y-103.25
X176.167Y-62.25
X176.417Y-53.0
X176.583Y-103.25
X179.75Y-62.25
X180.0Y-53.0
X180.167Y-103.25
X183.333Y-62.25
X183.583Y-53.0
X183.75Y-103.25
X186.75Y-113.0
X186.917Y-62.25
X187.167Y-53.0
X187.333Y-103.25
X187.75Y-141.25
X190.333Y-113.0
X190.5Y-62.25
X190.75Y-53.0
X190.917Y-103.25
X191.333Y-141.25
X193.917Y-113.0
X194.083Y-62.25
X194.333Y-53.0
X194.5Y-103.25
X194.8Y-73.4
X194.8Y-83.0
X194.917Y-141.25
X197.5Y-113.0
X197.667Y-62.25
X197.917Y-53.0
X198.083Y-103.25
X198.383Y-73.4
X198.383Y-83.0
X198.5Y-141.25
X201.083Y-113.0
X201.25Y-62.25
X201.5Y-53.0
X201.667Y-103.25
X201.967Y-73.4
X201.967Y-83.0
X202.083Y-141.25
X204.667Y-113.0
X204.833Y-62.25
X205.083Y-53.0
X205.25Y-103.25
X205.55Y-73.4
X205.55Y-83.0
X205.667Y-141.25
X208.25Y-113.0
X208.417Y-62.25
X208.667Y-53.0
X208.833Y-103.25
X209.25Y-141.25
X211.833Y-113.0
X212.0Y-62.25
X212.25Y-53.0
X212.417Y-103.25
X212.833Y-141.25
X214.25Y-98.25
X215.417Y-113.0
X215.583Y-62.25
X215.833Y-53.0
X216.0Y-103.25
X216.417Y-141.25
X217.833Y-98.25
X219.167Y-62.25
X219.417Y-53.0
X219.583Y-103.25
X221.417Y-98.25
X222.75Y-62.25
X223.0Y-53.0
X223.167Y-103.25
X225.0Y-98.25
X226.75Y-103.25
X227.833Y-90.75
X228.583Y-98.25
X231.417Y-90.75
X232.167Y-98.25
X235.0Y-90.75
X235.75Y-98.25
X238.583Y-90.75
X239.3Y-56.05
X239.317Y-49.85
X239.333Y-98.25
X242.167Y-90.75
X242.883Y-56.05
X242.9Y-49.85
X242.917Y-98.25
X243.45Y-69.95
X243.45Y-73.533
X245.75Y-90.75
X246.5Y-98.25
X248.4Y-145.6
X249.333Y-90.75
X250.083Y-98.25
X251.983Y-145.6
X252.917Y-90.75
X253.667Y-98.25
X255.567Y-145.6
X256.5Y-90.75
X257.0Y-133.5
X257.2Y-74.45
X257.2Y-78.033
X257.2Y-81.617
X257.2Y-85.2
X257.25Y-98.25
X259.0Y-39.333
X259.0Y-42.917
X259.0Y-46.5
X259.0Y-50.083
X259.0Y-53.667
X259.0Y-57.25
X259.0Y-60.833
X259.0Y-64.417
X259.0Y-68.0
X259.15Y-145.6
X260.583Y-133.5
X260.833Y-98.25
X264.167Y-133.5
X264.417Y-98.25
X267.75Y-133.5
X268.0Y-51.4
X268.0Y-54.983
X268.0Y-58.567
X268.0Y-62.15
X268.0Y-98.25
T4
X94.05Y-83.8
X94.05Y-108.0
T5
X256.79Y-128.0
X256.79Y-138.8
X262.0Y-128.0
X262.0Y-138.8
X267.21Y-128.0
X267.21Y-138.8
T6
X31.0Y-41.0
X31.0Y-147.0
X95.0Y-95.75
X166.0Y-41.0
X166.0Y-147.0
X199.0Y-96.0
X271.0Y-41.0
X271.0Y-147.0
M30
