%TF.GenerationSoftware,KiCad,Pcbnew,8.0.4-8.0.4-0~ubuntu22.04.1*%
%TF.CreationDate,2024-09-01T09:55:56+02:00*%
%TF.ProjectId,Forte_PA_Deck,466f7274-655f-4504-915f-4465636b2e6b,1.0*%
%TF.SameCoordinates,Original*%
%TF.FileFunction,Copper,L2,Bot*%
%TF.FilePolarity,Positive*%
%FSLAX46Y46*%
G04 Gerber Fmt 4.6, Leading zero omitted, Abs format (unit mm)*
G04 Created by KiCad (PCBNEW 8.0.4-8.0.4-0~ubuntu22.04.1) date 2024-09-01 09:55:56*
%MOMM*%
%LPD*%
G01*
G04 APERTURE LIST*
%TA.AperFunction,ComponentPad*%
%ADD10C,4.000000*%
%TD*%
%TA.AperFunction,ComponentPad*%
%ADD11O,1.600000X1.600000*%
%TD*%
%TA.AperFunction,ComponentPad*%
%ADD12O,2.500000X4.500000*%
%TD*%
%TA.AperFunction,ViaPad*%
%ADD13C,1.000000*%
%TD*%
%TA.AperFunction,ViaPad*%
%ADD14C,1.750000*%
%TD*%
%TA.AperFunction,ViaPad*%
%ADD15C,9.000000*%
%TD*%
G04 APERTURE END LIST*
D10*
%TO.P,J4,1,Pin_1*%
%TO.N,GND*%
X256790000Y-128000000D03*
X256790000Y-138800000D03*
X262000000Y-128000000D03*
X262000000Y-138800000D03*
X267210000Y-128000000D03*
X267210000Y-138800000D03*
%TD*%
D11*
%TO.P,TH1,2*%
%TO.N,GND*%
X94750000Y-54000000D03*
%TD*%
%TO.P,TH3,2*%
%TO.N,GND*%
X81750000Y-117440000D03*
%TD*%
D12*
%TO.P,Q2,2,S*%
%TO.N,GND*%
X94050000Y-108000000D03*
%TD*%
%TO.P,Q1,2,S*%
%TO.N,GND*%
X94050000Y-83800000D03*
%TD*%
D11*
%TO.P,TH2,2*%
%TO.N,GND*%
X81800000Y-74560000D03*
%TD*%
D13*
%TO.N,GND*%
X94900000Y-46900000D03*
X88000000Y-46900000D03*
X81100000Y-46900000D03*
X85700000Y-46900000D03*
X76500000Y-46900000D03*
X90300000Y-46900000D03*
X78800000Y-46900000D03*
X92600000Y-46900000D03*
X97200000Y-46900000D03*
X83400000Y-46900000D03*
X99500000Y-46900000D03*
X97100000Y-40400000D03*
X91100000Y-38500000D03*
X83800000Y-41900000D03*
X91000000Y-42000000D03*
X74200000Y-43200000D03*
X76700000Y-43100000D03*
D14*
X96000000Y-88500000D03*
D13*
X101828600Y-51054000D03*
X93065600Y-40335200D03*
X36550000Y-33250000D03*
X245850000Y-33250000D03*
X25000000Y-104050000D03*
X276250000Y-127700000D03*
D14*
X186750000Y-113000000D03*
D13*
X63231296Y-84974792D03*
X199500000Y-148000000D03*
X58250000Y-151500000D03*
D14*
X135166664Y-141750000D03*
X242916664Y-98250000D03*
D13*
X276250000Y-134600000D03*
D14*
X127249998Y-115750000D03*
X141583330Y-126000000D03*
D13*
X30750000Y-134750000D03*
X43000000Y-130000000D03*
X58500000Y-46750000D03*
X276250000Y-120800000D03*
X50250000Y-91050000D03*
X278750000Y-117700000D03*
X28000000Y-100550000D03*
X142350000Y-33250000D03*
X45750000Y-105550000D03*
X184550000Y-151500000D03*
X60550000Y-151500000D03*
D14*
X131583331Y-141750000D03*
X159500000Y-115750000D03*
X82000000Y-124250000D03*
D13*
X276250000Y-95500000D03*
X156150000Y-33250000D03*
X209850000Y-151500000D03*
D14*
X91500000Y-81500000D03*
X260833329Y-98250000D03*
D13*
X152000000Y-38000000D03*
D14*
X107400000Y-54600000D03*
D13*
X106000000Y-38000000D03*
X278750000Y-67450000D03*
X100507800Y-49149000D03*
X70500000Y-80750000D03*
X45750000Y-119350000D03*
D14*
X137999997Y-115750000D03*
X183583332Y-53000000D03*
D13*
X190300000Y-148000000D03*
X115750000Y-151500000D03*
X218250000Y-33250000D03*
D14*
X183333332Y-62250000D03*
X153333329Y-58750000D03*
D13*
X45750000Y-103250000D03*
D14*
X107150000Y-75600000D03*
X148749996Y-126000000D03*
D13*
X50250000Y-104850000D03*
X228250000Y-151500000D03*
X278750000Y-69750000D03*
X28000000Y-114350000D03*
D14*
X156916662Y-50000000D03*
D13*
X84407800Y-49149000D03*
X278750000Y-120000000D03*
D14*
X183749999Y-103250000D03*
D13*
X260450000Y-151500000D03*
X108850000Y-151500000D03*
X278750000Y-138400000D03*
D14*
X231416669Y-90750000D03*
D13*
X278750000Y-115400000D03*
X106800000Y-146500000D03*
X142800000Y-38000000D03*
X85850000Y-151500000D03*
D14*
X160500000Y-58750000D03*
X155916662Y-135500000D03*
X152333329Y-126000000D03*
D13*
X41600000Y-65600000D03*
D14*
X82000000Y-131750000D03*
D13*
X48750000Y-129750000D03*
D14*
X88166663Y-141750000D03*
D13*
X213650000Y-33250000D03*
X170750000Y-151500000D03*
X25000000Y-108650000D03*
X149250000Y-33250000D03*
D14*
X259000000Y-50083335D03*
D13*
X54250000Y-53000000D03*
X79200000Y-146500000D03*
X206400000Y-148000000D03*
X45750000Y-112450000D03*
X31700000Y-87750000D03*
X149700000Y-38000000D03*
D14*
X221416666Y-98250000D03*
D13*
X104500000Y-146500000D03*
X62850000Y-151500000D03*
X89450000Y-33250000D03*
D14*
X124416665Y-141750000D03*
X77416664Y-141750000D03*
X113666666Y-67250000D03*
D13*
X215950000Y-33250000D03*
D14*
X224999999Y-98250000D03*
D13*
X98207800Y-49149000D03*
X43750000Y-46000000D03*
X183400000Y-148000000D03*
X96350000Y-33250000D03*
X275750000Y-54700000D03*
X225150000Y-33250000D03*
X99900000Y-146500000D03*
X70500000Y-79250000D03*
X105550000Y-33250000D03*
X25000000Y-140850000D03*
X45750000Y-98650000D03*
D14*
X259000000Y-39333331D03*
X91500000Y-108750000D03*
D13*
X83550000Y-151500000D03*
D14*
X107150000Y-67350000D03*
D13*
X174800000Y-38000000D03*
D14*
X155916662Y-115750000D03*
D13*
X190900000Y-38000000D03*
X29750000Y-79250000D03*
X25000000Y-55750000D03*
X172250000Y-33250000D03*
X66500000Y-85500000D03*
X61515000Y-70060000D03*
X59750000Y-46750000D03*
X28000000Y-91350000D03*
D14*
X217833333Y-98250000D03*
D13*
X276250000Y-93200000D03*
X70500000Y-111250000D03*
D14*
X243450000Y-69950000D03*
D13*
X74350000Y-151500000D03*
D14*
X82000000Y-127750000D03*
D13*
X126700000Y-38000000D03*
X39000000Y-75000000D03*
D14*
X124666665Y-58750000D03*
D13*
X213300000Y-148000000D03*
X45750000Y-94050000D03*
X278750000Y-140700000D03*
D14*
X130833331Y-135500000D03*
X85000000Y-81600000D03*
D13*
X222850000Y-33250000D03*
X59000000Y-64250000D03*
D14*
X110083333Y-141750000D03*
D13*
X75600000Y-44800000D03*
X113450000Y-151500000D03*
X144650000Y-33250000D03*
X40500000Y-87700000D03*
X181450000Y-33250000D03*
X151550000Y-33250000D03*
X222500000Y-148000000D03*
X195250000Y-33250000D03*
X25000000Y-101750000D03*
X28000000Y-89050000D03*
D14*
X190916665Y-103250000D03*
D13*
X276250000Y-123100000D03*
D14*
X146166663Y-50000000D03*
D13*
X99528600Y-51054000D03*
X196050000Y-151500000D03*
X129000000Y-38000000D03*
D14*
X169000000Y-62250000D03*
D13*
X276250000Y-107000000D03*
X116000000Y-146500000D03*
X223650000Y-151500000D03*
D14*
X105750000Y-115750000D03*
X198499999Y-141250000D03*
X127999998Y-141750000D03*
D13*
X120350000Y-151500000D03*
X197800000Y-38000000D03*
X75900000Y-84900000D03*
X49500000Y-123750000D03*
D14*
X123666665Y-135500000D03*
D13*
X95300000Y-146500000D03*
X45750000Y-96350000D03*
X50250000Y-88750000D03*
D14*
X159500000Y-126000000D03*
D13*
X36500000Y-61500000D03*
X45750000Y-82550000D03*
X137750000Y-33250000D03*
D14*
X197916664Y-53000000D03*
D13*
X122650000Y-151500000D03*
X52650000Y-33250000D03*
X25000000Y-122450000D03*
D14*
X131833331Y-50000000D03*
X135416664Y-50000000D03*
D13*
X197200000Y-148000000D03*
D14*
X152333329Y-135500000D03*
X257000000Y-133500000D03*
X191333333Y-141250000D03*
X130833331Y-115750000D03*
D13*
X40500000Y-126800000D03*
X200100000Y-38000000D03*
X161750000Y-151500000D03*
D14*
X84900000Y-109500000D03*
D13*
X145650000Y-151500000D03*
D14*
X76000000Y-95750000D03*
D13*
X143600000Y-146500000D03*
X132100000Y-146500000D03*
X246650000Y-151500000D03*
X45750000Y-89450000D03*
X148200000Y-146500000D03*
X93607800Y-49149000D03*
X198350000Y-151500000D03*
X66450000Y-33250000D03*
X41250000Y-52500000D03*
D14*
X88000000Y-101300000D03*
D13*
X241250000Y-33250000D03*
D14*
X257200000Y-74450001D03*
X120083332Y-115750000D03*
D13*
X97228600Y-51054000D03*
X78828600Y-51054000D03*
D14*
X109333333Y-135500000D03*
D13*
X117050000Y-33250000D03*
X32250000Y-58250000D03*
D14*
X259000000Y-46500002D03*
X141583330Y-115750000D03*
X106750000Y-50000000D03*
D13*
X278750000Y-143000000D03*
X236000000Y-35500000D03*
X78740000Y-38963600D03*
X28000000Y-86750000D03*
D15*
X95000000Y-95750000D03*
D13*
X278750000Y-136100000D03*
X276250000Y-116200000D03*
D14*
X91500000Y-84500000D03*
D13*
X276250000Y-111600000D03*
X79950000Y-84925000D03*
X188600000Y-38000000D03*
X90328600Y-51054000D03*
X25000000Y-69550000D03*
X28000000Y-116650000D03*
X25000000Y-87950000D03*
X25000000Y-115550000D03*
D14*
X215416669Y-113000000D03*
D13*
X63250000Y-118000000D03*
X34250000Y-33250000D03*
X31250000Y-53750000D03*
D15*
X166000000Y-147000000D03*
D13*
X150500000Y-146500000D03*
X37550000Y-151500000D03*
X50250000Y-100250000D03*
X276250000Y-130000000D03*
D14*
X219166662Y-62250000D03*
X201499997Y-53000000D03*
D13*
X92750000Y-151500000D03*
X79807800Y-49149000D03*
X226000000Y-41500000D03*
X25000000Y-71850000D03*
D14*
X88000000Y-97000000D03*
D13*
X61785000Y-125550000D03*
X131850000Y-151500000D03*
X69750000Y-40750000D03*
X236000000Y-37250000D03*
D14*
X187333332Y-103250000D03*
X215999996Y-103250000D03*
D13*
X86100000Y-146500000D03*
D14*
X253666663Y-98250000D03*
D13*
X25000000Y-110950000D03*
D14*
X116499999Y-126000000D03*
D13*
X49050000Y-151500000D03*
D14*
X193916666Y-113000000D03*
D13*
X250450000Y-33250000D03*
X28000000Y-107450000D03*
D14*
X59499999Y-141750000D03*
D13*
X276250000Y-139200000D03*
X66000000Y-47000000D03*
D14*
X242166668Y-90750000D03*
D13*
X193200000Y-38000000D03*
X229750000Y-33250000D03*
X57500000Y-124000000D03*
X25000000Y-131650000D03*
X188350000Y-33250000D03*
D14*
X134416664Y-115750000D03*
D13*
X209050000Y-33250000D03*
X278750000Y-113100000D03*
D15*
X166000000Y-41000000D03*
D14*
X160500000Y-50000000D03*
D13*
X50250000Y-118650000D03*
X186300000Y-38000000D03*
X88028600Y-51054000D03*
D14*
X131583331Y-67250000D03*
D13*
X40500000Y-90000000D03*
X79500000Y-122500000D03*
X45750000Y-84850000D03*
X45750000Y-87150000D03*
X67250000Y-38000000D03*
X278750000Y-65150000D03*
X190650000Y-33250000D03*
X100950000Y-33250000D03*
X63100000Y-146500000D03*
X46250000Y-132250000D03*
X52000000Y-121250000D03*
X25000000Y-83350000D03*
D14*
X121083332Y-50000000D03*
X149499996Y-141750000D03*
X239333331Y-98250000D03*
D13*
X110600000Y-38000000D03*
X52750000Y-72750000D03*
D14*
X63083332Y-141750000D03*
D13*
X134400000Y-146500000D03*
X71900000Y-107300000D03*
X63250000Y-74000000D03*
X35250000Y-134750000D03*
X82000000Y-111250000D03*
X110150000Y-33250000D03*
X275750000Y-63900000D03*
X239750000Y-151500000D03*
X87150000Y-33250000D03*
X75250000Y-125000000D03*
X248950000Y-151500000D03*
X276250000Y-97800000D03*
X276250000Y-113900000D03*
X40750000Y-137750000D03*
D14*
X187166665Y-53000000D03*
X198383333Y-83000000D03*
D13*
X276250000Y-104700000D03*
X25000000Y-113250000D03*
X226000000Y-39750000D03*
X140500000Y-38000000D03*
X49750000Y-50250000D03*
X153850000Y-33250000D03*
X41250000Y-51250000D03*
X40500000Y-92300000D03*
X102200000Y-146500000D03*
X80000000Y-112000000D03*
D14*
X194499998Y-103250000D03*
D13*
X76750000Y-36750000D03*
X43300000Y-64000000D03*
X40500000Y-101500000D03*
D14*
X190499998Y-62250000D03*
D13*
X28000000Y-102850000D03*
X211350000Y-33250000D03*
X80500000Y-80250000D03*
X248150000Y-33250000D03*
X90765600Y-40335200D03*
D14*
X219583329Y-103250000D03*
X214250000Y-98250000D03*
D13*
X40500000Y-110700000D03*
X278750000Y-101600000D03*
X83800000Y-146500000D03*
X86165600Y-40335200D03*
X185700000Y-148000000D03*
D14*
X138999997Y-58750000D03*
D13*
X226000000Y-43799503D03*
D14*
X137999997Y-126000000D03*
X134416664Y-135500000D03*
X226750000Y-103250000D03*
X120833332Y-67250000D03*
D13*
X45750000Y-110150000D03*
X36000000Y-114300000D03*
D14*
X209249998Y-141250000D03*
X138749997Y-67250000D03*
X155916662Y-126000000D03*
D13*
X31500000Y-78250000D03*
X207000000Y-38000000D03*
X28000000Y-125850000D03*
X50250000Y-95650000D03*
X73350000Y-33250000D03*
D14*
X153083329Y-67250000D03*
D13*
X221350000Y-151500000D03*
X42150000Y-151500000D03*
D14*
X116499999Y-115750000D03*
X120833332Y-141750000D03*
X124416665Y-67250000D03*
D13*
X78765400Y-36750000D03*
D14*
X131833331Y-58750000D03*
D13*
X37000000Y-53250000D03*
X227100000Y-148000000D03*
D14*
X176166666Y-62250000D03*
D13*
X113700000Y-146500000D03*
X104851200Y-40741600D03*
D14*
X145166663Y-126000000D03*
D13*
X150250000Y-151500000D03*
X72700000Y-44800000D03*
X40500000Y-103800000D03*
X98650000Y-33250000D03*
X278750000Y-126900000D03*
D14*
X176583333Y-103250000D03*
X259000000Y-68000000D03*
D13*
X59000000Y-43250000D03*
X220800000Y-38000000D03*
X200650000Y-151500000D03*
D14*
X145166663Y-135500000D03*
D13*
X95000000Y-111250000D03*
D14*
X201249997Y-62250000D03*
D13*
X163050000Y-33250000D03*
X235150000Y-151500000D03*
X165350000Y-33250000D03*
X278750000Y-51350000D03*
D14*
X243450000Y-73533333D03*
X127249998Y-126000000D03*
D13*
X48050000Y-33250000D03*
D14*
X259149999Y-145600000D03*
D13*
X88400000Y-146500000D03*
X25000000Y-124750000D03*
D14*
X166900000Y-106400000D03*
X105750000Y-126000000D03*
D13*
X278750000Y-133800000D03*
X278750000Y-58250000D03*
X34000000Y-87750000D03*
D14*
X250083330Y-98250000D03*
X205549999Y-83000000D03*
D13*
X43450000Y-33250000D03*
D14*
X70249998Y-141750000D03*
D13*
X135900000Y-38000000D03*
X91307800Y-49149000D03*
X126250000Y-33250000D03*
D14*
X194916666Y-141250000D03*
X55916666Y-141750000D03*
X145916663Y-141750000D03*
D13*
X79900000Y-107300000D03*
X179400000Y-38000000D03*
D14*
X145916663Y-67250000D03*
X259000000Y-57250001D03*
D13*
X125200000Y-146500000D03*
X63250000Y-116500000D03*
X227750000Y-67000000D03*
X66750000Y-79000000D03*
X197550000Y-33250000D03*
D14*
X117249999Y-141750000D03*
D13*
X83500000Y-40300000D03*
X278750000Y-37550000D03*
X40500000Y-113000000D03*
D14*
X223000000Y-53000000D03*
D13*
X50250000Y-116350000D03*
X278750000Y-60550000D03*
X45750000Y-117050000D03*
X35250000Y-140750000D03*
X195500000Y-38000000D03*
D14*
X84583330Y-141750000D03*
D13*
X237450000Y-151500000D03*
X25000000Y-120150000D03*
D14*
X251983333Y-145600000D03*
X130833331Y-126000000D03*
D13*
X65500000Y-65500000D03*
X158900000Y-38000000D03*
X191450000Y-151500000D03*
X97600000Y-146500000D03*
X209300000Y-38000000D03*
X119800000Y-38000000D03*
X177650000Y-151500000D03*
X36250000Y-66750000D03*
D14*
X95333329Y-141750000D03*
D13*
X118300000Y-146500000D03*
D14*
X264166666Y-133500000D03*
X127999998Y-67250000D03*
X82600000Y-71200000D03*
D15*
X271000000Y-147000000D03*
D14*
X197666664Y-62250000D03*
D13*
X172500000Y-38000000D03*
X232850000Y-151500000D03*
X127250000Y-151500000D03*
X104250000Y-151500000D03*
X72050000Y-151500000D03*
X66000000Y-50000000D03*
X40500000Y-94600000D03*
X50350000Y-33250000D03*
X40500000Y-78500000D03*
X174550000Y-33250000D03*
X181700000Y-38000000D03*
X227450000Y-33250000D03*
D14*
X153083329Y-141750000D03*
D13*
X63750000Y-92000000D03*
X44450000Y-151500000D03*
X70000000Y-146500000D03*
X232050000Y-33250000D03*
X186850000Y-151500000D03*
D14*
X91000000Y-103100000D03*
D13*
X88465600Y-40335200D03*
X38000000Y-134750000D03*
X50250000Y-86450000D03*
D14*
X242883333Y-56050000D03*
D13*
X25000000Y-127050000D03*
D14*
X88000000Y-89800000D03*
X73000000Y-95750000D03*
D13*
X69700000Y-52500000D03*
X117500000Y-38000000D03*
X65150000Y-151500000D03*
D14*
X239300000Y-56050000D03*
D13*
X30750000Y-58250000D03*
D14*
X208833330Y-103250000D03*
X116499999Y-135500000D03*
D13*
X178800000Y-148000000D03*
D14*
X257200000Y-78033334D03*
X180166666Y-103250000D03*
D13*
X77400000Y-115950000D03*
D14*
X148749996Y-135500000D03*
D13*
X112450000Y-33250000D03*
D14*
X107400000Y-58850000D03*
D13*
X40500000Y-124500000D03*
X101950000Y-151500000D03*
X112900000Y-38000000D03*
D14*
X162100000Y-112200000D03*
D13*
X81500000Y-146500000D03*
X64150000Y-33250000D03*
X42050000Y-55500000D03*
X82550000Y-33250000D03*
D14*
X246499997Y-98250000D03*
D13*
X275750000Y-66200000D03*
X25000000Y-90250000D03*
X278750000Y-44450000D03*
X176850000Y-33250000D03*
D14*
X208249998Y-113000000D03*
D13*
X50250000Y-97950000D03*
X89500000Y-53000000D03*
X234350000Y-33250000D03*
X127500000Y-146500000D03*
X40500000Y-115300000D03*
X25000000Y-74150000D03*
X38250000Y-140000000D03*
X51500000Y-40000000D03*
D14*
X141583330Y-135500000D03*
D13*
X265050000Y-151500000D03*
X229400000Y-148000000D03*
X108300000Y-38000000D03*
D14*
X91500000Y-106500000D03*
D13*
X25000000Y-81050000D03*
X208700000Y-148000000D03*
X40500000Y-99200000D03*
X189150000Y-151500000D03*
X28000000Y-123550000D03*
X25000000Y-44250000D03*
X45250000Y-60200000D03*
D14*
X179749999Y-62250000D03*
D13*
X45750000Y-114750000D03*
D14*
X95500000Y-103000000D03*
D13*
X83000000Y-80500000D03*
X79000000Y-59800000D03*
D14*
X142583330Y-50000000D03*
D13*
X278750000Y-103900000D03*
D14*
X187750000Y-141250000D03*
D13*
X202150000Y-33250000D03*
X28000000Y-118950000D03*
X50250000Y-79550000D03*
X40500000Y-122200000D03*
X74000000Y-51000000D03*
X173050000Y-151500000D03*
X38850000Y-33250000D03*
X136450000Y-151500000D03*
D14*
X197499999Y-113000000D03*
D13*
X176500000Y-148000000D03*
X59000000Y-66000000D03*
D14*
X138749997Y-141750000D03*
D13*
X129800000Y-146500000D03*
X83000000Y-86750000D03*
X158450000Y-33250000D03*
X91750000Y-33250000D03*
X278750000Y-99300000D03*
X40500000Y-119900000D03*
X122100000Y-38000000D03*
X57750000Y-76000000D03*
X51250000Y-127250000D03*
X275750000Y-52400000D03*
X25000000Y-94850000D03*
D14*
X135416664Y-58750000D03*
D13*
X95050000Y-151500000D03*
X45750000Y-123950000D03*
X227750000Y-65250000D03*
X111400000Y-146500000D03*
X81500000Y-101250000D03*
X45750000Y-91750000D03*
D14*
X268000000Y-98250000D03*
X82600000Y-62200000D03*
D13*
X80500000Y-69250000D03*
X276250000Y-141500000D03*
X77507800Y-49149000D03*
X72500000Y-125000000D03*
X109100000Y-146500000D03*
X41250000Y-75000000D03*
X216200000Y-38000000D03*
D14*
X172583333Y-62250000D03*
D13*
X278750000Y-49050000D03*
X220550000Y-33250000D03*
D14*
X113916666Y-58750000D03*
D13*
X25000000Y-92550000D03*
X37500000Y-78250000D03*
X218500000Y-38000000D03*
D14*
X156916662Y-58750000D03*
X201083332Y-113000000D03*
D13*
X92250000Y-111250000D03*
X76650000Y-151500000D03*
X264250000Y-33250000D03*
D14*
X153333329Y-50000000D03*
D13*
X43750000Y-78250000D03*
X71050000Y-33250000D03*
X202400000Y-38000000D03*
X60800000Y-146500000D03*
X252750000Y-33250000D03*
D14*
X120083332Y-126000000D03*
D13*
X179150000Y-33250000D03*
X25000000Y-51150000D03*
X40500000Y-85400000D03*
D14*
X190333333Y-113000000D03*
D13*
X68750000Y-87250000D03*
D14*
X190749998Y-53000000D03*
X205666665Y-141250000D03*
D13*
X25000000Y-76450000D03*
X49250000Y-68750000D03*
D14*
X127249998Y-135500000D03*
D13*
X74600000Y-146500000D03*
X278750000Y-39850000D03*
X57750000Y-115000000D03*
D14*
X124666665Y-50000000D03*
D13*
X53000000Y-46750000D03*
D14*
X159500000Y-135500000D03*
D13*
X278750000Y-106200000D03*
D14*
X84750000Y-97000000D03*
X205083330Y-53000000D03*
D13*
X25000000Y-99450000D03*
X67700000Y-146500000D03*
X43750000Y-134500000D03*
X169950000Y-33250000D03*
D14*
X149749996Y-58750000D03*
D13*
X225400000Y-38000000D03*
D14*
X123666665Y-115750000D03*
X259000000Y-60833334D03*
X194800000Y-83000000D03*
D13*
X75650000Y-33250000D03*
D14*
X223166662Y-103250000D03*
X103900000Y-94200000D03*
X149499996Y-67250000D03*
D13*
X111150000Y-151500000D03*
D14*
X257200000Y-81616667D03*
D13*
X120600000Y-146500000D03*
X25000000Y-78750000D03*
X57750000Y-73750000D03*
X77950000Y-33250000D03*
D14*
X216416669Y-141250000D03*
D13*
X238950000Y-33250000D03*
X130850000Y-33250000D03*
X154300000Y-38000000D03*
X278750000Y-124600000D03*
X56250000Y-124000000D03*
D14*
X160250000Y-141750000D03*
X82600000Y-65000000D03*
D13*
X77750000Y-66000000D03*
X25000000Y-46550000D03*
D14*
X232166665Y-98250000D03*
D13*
X43750000Y-44000000D03*
X141300000Y-146500000D03*
X28000000Y-128150000D03*
D14*
X215833329Y-53000000D03*
D13*
X204450000Y-33250000D03*
X124950000Y-151500000D03*
X33000000Y-134750000D03*
X28000000Y-84450000D03*
X244350000Y-151500000D03*
X204700000Y-38000000D03*
X152550000Y-151500000D03*
D14*
X228583332Y-98250000D03*
D13*
X212150000Y-151500000D03*
X36000000Y-116600000D03*
D14*
X198383333Y-73400000D03*
X227833331Y-90750000D03*
D13*
X141050000Y-151500000D03*
X202950000Y-151500000D03*
X225950000Y-151500000D03*
X46250000Y-75000000D03*
X50900000Y-64900000D03*
D14*
X105750000Y-130750000D03*
D13*
X40250000Y-68000000D03*
D14*
X88000000Y-94500000D03*
D13*
X278750000Y-55950000D03*
D14*
X164500000Y-109300000D03*
D13*
X50250000Y-107150000D03*
X204100000Y-148000000D03*
X227700000Y-38000000D03*
X44000000Y-75000000D03*
X276250000Y-100100000D03*
D14*
X205549999Y-73400000D03*
D13*
X76581000Y-39014400D03*
X217900000Y-148000000D03*
X275750000Y-50100000D03*
X107850000Y-33250000D03*
D14*
X248400000Y-145600000D03*
D13*
X216750000Y-151500000D03*
X57750000Y-117000000D03*
X53650000Y-151500000D03*
X50250000Y-111750000D03*
X102666800Y-45237400D03*
X39600000Y-63300000D03*
D14*
X113666666Y-141750000D03*
X112916666Y-135500000D03*
X257200000Y-85200000D03*
X142333330Y-141750000D03*
D13*
X72750000Y-120750000D03*
X74500000Y-73250000D03*
X257350000Y-33250000D03*
D14*
X80999997Y-141750000D03*
D13*
X278750000Y-94700000D03*
X93000000Y-146500000D03*
X56500000Y-46750000D03*
X86707800Y-49149000D03*
X253550000Y-151500000D03*
X28000000Y-105150000D03*
D14*
X121083332Y-58750000D03*
D13*
X51000000Y-74500000D03*
D14*
X219416662Y-53000000D03*
D13*
X45750000Y-100950000D03*
X70250000Y-62250000D03*
D14*
X235000002Y-90750000D03*
D13*
X45750000Y-33250000D03*
X131300000Y-38000000D03*
D14*
X101300000Y-95900000D03*
D13*
X25000000Y-85650000D03*
X227750000Y-60000000D03*
X213900000Y-38000000D03*
X45750000Y-80250000D03*
X76500000Y-51000000D03*
X276250000Y-132300000D03*
X242050000Y-151500000D03*
X160750000Y-33250000D03*
D14*
X201966666Y-73400000D03*
D13*
X122900000Y-146500000D03*
D14*
X52333333Y-141750000D03*
D13*
X95326200Y-40360600D03*
X83600000Y-57600000D03*
D14*
X123666665Y-126000000D03*
D13*
X45750000Y-121650000D03*
D14*
X242900000Y-49850000D03*
D13*
X275750000Y-61600000D03*
X63500000Y-55250000D03*
X230250000Y-49750000D03*
D14*
X128249998Y-50000000D03*
D13*
X25000000Y-67250000D03*
X49250000Y-67000000D03*
X28500000Y-140750000D03*
X245500000Y-37500000D03*
X278750000Y-42150000D03*
X97350000Y-151500000D03*
X262750000Y-151500000D03*
X245500000Y-35750000D03*
X97500000Y-53250000D03*
X40300000Y-55500000D03*
X276250000Y-136900000D03*
X25000000Y-64950000D03*
X219050000Y-151500000D03*
X83000000Y-105250000D03*
X50900000Y-63200000D03*
X255850000Y-151500000D03*
X50250000Y-102550000D03*
X28000000Y-109750000D03*
X192950000Y-33250000D03*
X94928600Y-51054000D03*
X49750000Y-71500000D03*
X143350000Y-151500000D03*
X68750000Y-33250000D03*
X25000000Y-106350000D03*
X74000000Y-48500000D03*
X133150000Y-33250000D03*
X121650000Y-33250000D03*
X186050000Y-33250000D03*
X134150000Y-151500000D03*
X278750000Y-108500000D03*
X45250000Y-128000000D03*
X53000000Y-55750000D03*
X188000000Y-148000000D03*
D14*
X73833331Y-141750000D03*
D13*
X61850000Y-33250000D03*
X106550000Y-151500000D03*
X224800000Y-148000000D03*
X40500000Y-108400000D03*
X251250000Y-151500000D03*
X25000000Y-133950000D03*
D14*
X135166664Y-67250000D03*
D13*
X227750000Y-62250000D03*
X28000000Y-132750000D03*
X275750000Y-47800000D03*
X58000000Y-92000000D03*
X211600000Y-38000000D03*
X77250000Y-123750000D03*
X278750000Y-46750000D03*
X181100000Y-148000000D03*
X36000000Y-112000000D03*
X47500000Y-125750000D03*
X50250000Y-114050000D03*
X206750000Y-33250000D03*
X278750000Y-53650000D03*
D14*
X259000000Y-53666668D03*
D13*
X119350000Y-33250000D03*
D14*
X91200000Y-88500000D03*
X179999999Y-53000000D03*
D13*
X76900000Y-146500000D03*
X220200000Y-148000000D03*
X70500000Y-112500000D03*
X55250000Y-46750000D03*
D14*
X145166663Y-115750000D03*
D13*
X103759000Y-43205400D03*
X167650000Y-33250000D03*
D14*
X110333333Y-50000000D03*
D13*
X276250000Y-109300000D03*
D14*
X82000000Y-135500000D03*
D13*
X147400000Y-38000000D03*
D14*
X260583333Y-133500000D03*
D13*
X58500000Y-146500000D03*
X53250000Y-43250000D03*
X61750000Y-40250000D03*
X139000000Y-146500000D03*
X47000000Y-78250000D03*
X138750000Y-151500000D03*
D14*
X173000000Y-103250000D03*
D13*
X25000000Y-129350000D03*
X205250000Y-151500000D03*
X136700000Y-146500000D03*
X67250000Y-62250000D03*
X182250000Y-151500000D03*
D14*
X102500000Y-141750000D03*
D13*
X278750000Y-97000000D03*
X90700000Y-146500000D03*
D15*
X199000000Y-96000000D03*
D13*
X28000000Y-130450000D03*
D14*
X212416663Y-103250000D03*
D13*
X50250000Y-93350000D03*
D14*
X215583329Y-62250000D03*
D13*
X82107800Y-49149000D03*
X25000000Y-60350000D03*
X140050000Y-33250000D03*
D14*
X91749996Y-141750000D03*
D13*
X50250000Y-81850000D03*
D14*
X238583335Y-90750000D03*
X194800000Y-73400000D03*
D13*
X85728600Y-51054000D03*
D14*
X142583330Y-58750000D03*
D13*
X214450000Y-151500000D03*
X72750000Y-119500000D03*
X43750000Y-40000000D03*
X39500000Y-133000000D03*
X32250000Y-65500000D03*
D14*
X222750000Y-62250000D03*
X264416662Y-98250000D03*
D13*
X43250000Y-60200000D03*
X276250000Y-102400000D03*
X82000000Y-121250000D03*
D14*
X117499999Y-50000000D03*
D13*
X207550000Y-151500000D03*
X34750000Y-61500000D03*
X89007800Y-49149000D03*
X28000000Y-112050000D03*
D14*
X201966666Y-83000000D03*
D13*
X275750000Y-57000000D03*
X40500000Y-96900000D03*
D15*
X271000000Y-41000000D03*
D13*
X192600000Y-148000000D03*
D14*
X194083331Y-62250000D03*
D13*
X275750000Y-59300000D03*
X129550000Y-151500000D03*
D14*
X211999996Y-62250000D03*
D13*
X75900000Y-107300000D03*
D14*
X211833331Y-113000000D03*
D13*
X231700000Y-148000000D03*
X81128600Y-51054000D03*
X177100000Y-38000000D03*
X32000000Y-140750000D03*
X81250000Y-151500000D03*
X115200000Y-38000000D03*
X211000000Y-148000000D03*
X40500000Y-106100000D03*
X145900000Y-146500000D03*
X25000000Y-136250000D03*
X147950000Y-151500000D03*
X25000000Y-97150000D03*
X183750000Y-33250000D03*
X28000000Y-121250000D03*
X25000000Y-48850000D03*
D14*
X82600000Y-68000000D03*
X201666664Y-103250000D03*
X105750000Y-135500000D03*
D13*
X65400000Y-146500000D03*
D14*
X204666665Y-113000000D03*
D13*
X193750000Y-151500000D03*
X90450000Y-151500000D03*
X157150000Y-151500000D03*
X114750000Y-33250000D03*
D14*
X68600000Y-95800000D03*
D13*
X48250000Y-73250000D03*
X215600000Y-148000000D03*
D14*
X249333334Y-90750000D03*
D13*
X84850000Y-33250000D03*
D14*
X256500000Y-90750000D03*
D13*
X275750000Y-45500000D03*
D14*
X172833333Y-53000000D03*
X259000000Y-64416667D03*
D13*
X67450000Y-151500000D03*
D14*
X156666662Y-141750000D03*
D13*
X83464400Y-38125400D03*
X278750000Y-122300000D03*
D14*
X63250000Y-95750000D03*
D13*
X159450000Y-151500000D03*
X85500000Y-53000000D03*
X276250000Y-125400000D03*
X34500000Y-78250000D03*
D14*
X105750000Y-120750000D03*
D13*
X82000000Y-120000000D03*
X83428600Y-51054000D03*
D14*
X169600000Y-104000000D03*
D13*
X70750000Y-65500000D03*
D14*
X186916665Y-62250000D03*
X268000000Y-62149999D03*
D13*
X50250000Y-109450000D03*
D14*
X109333333Y-115750000D03*
D13*
X146950000Y-33250000D03*
X230250000Y-52750000D03*
X73000000Y-39750000D03*
D14*
X128249998Y-58750000D03*
D13*
X59750000Y-40250000D03*
D14*
X208666663Y-53000000D03*
D13*
X99650000Y-151500000D03*
X128550000Y-33250000D03*
X73750000Y-56750000D03*
X65250000Y-58250000D03*
X199850000Y-33250000D03*
X28000000Y-81000000D03*
X25000000Y-138550000D03*
D14*
X239316667Y-49850000D03*
X268000000Y-54983333D03*
D13*
X25000000Y-58050000D03*
X275750000Y-68500000D03*
D14*
X149749996Y-50000000D03*
X112916666Y-115750000D03*
X204833330Y-62250000D03*
D13*
X145100000Y-38000000D03*
X39850000Y-151500000D03*
D14*
X137999997Y-135500000D03*
X198083331Y-103250000D03*
D13*
X45750000Y-107850000D03*
D14*
X81750000Y-95750000D03*
X257249996Y-98250000D03*
D13*
X66250000Y-106500000D03*
X28000000Y-93650000D03*
D14*
X66666665Y-141750000D03*
D13*
X69750000Y-151500000D03*
X45000000Y-63950000D03*
D14*
X268000000Y-51400000D03*
D13*
X278750000Y-110800000D03*
D14*
X109333333Y-126000000D03*
X113916666Y-50000000D03*
X107150000Y-63350000D03*
X156666662Y-67250000D03*
D13*
X83000000Y-83750000D03*
X55950000Y-151500000D03*
D14*
X117249999Y-67250000D03*
D13*
X276250000Y-118500000D03*
X25000000Y-62650000D03*
X258150000Y-151500000D03*
D14*
X205249997Y-103250000D03*
D13*
X80250000Y-33250000D03*
D14*
X202083332Y-141250000D03*
D13*
X68500000Y-105000000D03*
D14*
X106500000Y-141750000D03*
X148749996Y-115750000D03*
D13*
X63750000Y-106750000D03*
X278750000Y-62850000D03*
D14*
X120083332Y-135500000D03*
D13*
X103250000Y-33250000D03*
X138200000Y-38000000D03*
X123950000Y-33250000D03*
X53750000Y-125250000D03*
X81700994Y-53200000D03*
X57250000Y-33250000D03*
X133600000Y-38000000D03*
X40500000Y-129100000D03*
X278750000Y-131500000D03*
X62000000Y-55250000D03*
X154850000Y-151500000D03*
X40500000Y-117600000D03*
D14*
X252916667Y-90750000D03*
D13*
X81500000Y-90750000D03*
X61500000Y-46750000D03*
X95907800Y-49149000D03*
X28000000Y-98250000D03*
X83000000Y-108000000D03*
D14*
X208416663Y-62250000D03*
D13*
X71850000Y-84875000D03*
X92628600Y-51054000D03*
X74100000Y-44800000D03*
X59550000Y-33250000D03*
D14*
X134416664Y-126000000D03*
X152333329Y-115750000D03*
D13*
X184000000Y-38000000D03*
D14*
X268000000Y-58566666D03*
D13*
X41150000Y-33250000D03*
X201800000Y-148000000D03*
X194900000Y-148000000D03*
X230250000Y-51250000D03*
X124400000Y-38000000D03*
D14*
X267749999Y-133500000D03*
X245750001Y-90750000D03*
D13*
X72300000Y-146500000D03*
X223100000Y-38000000D03*
D15*
X31000000Y-41000000D03*
D13*
X179950000Y-151500000D03*
X175350000Y-151500000D03*
X54950000Y-33250000D03*
D14*
X212249996Y-53000000D03*
X259000000Y-42916669D03*
X79000000Y-95750000D03*
D13*
X94050000Y-33250000D03*
X77450000Y-76050000D03*
X78950000Y-151500000D03*
D14*
X235749998Y-98250000D03*
X160250000Y-67250000D03*
X84750000Y-94500000D03*
X142333330Y-67250000D03*
X98916662Y-141750000D03*
X194333331Y-53000000D03*
X112916666Y-126000000D03*
X255566666Y-145600000D03*
D13*
X52500000Y-50000000D03*
D15*
X31000000Y-147000000D03*
D13*
X230550000Y-151500000D03*
X51350000Y-151500000D03*
X33500000Y-65500000D03*
D14*
X212833331Y-141250000D03*
D13*
X40500000Y-80800000D03*
X29400000Y-74000000D03*
D14*
X117499999Y-58750000D03*
X107150000Y-71850000D03*
D13*
X278750000Y-129200000D03*
X135450000Y-33250000D03*
X118050000Y-151500000D03*
X28000000Y-95950000D03*
X88150000Y-151500000D03*
D14*
X169250000Y-53000000D03*
D13*
X50250000Y-84150000D03*
X46750000Y-151500000D03*
X25000000Y-53450000D03*
X32750000Y-50500000D03*
X25000000Y-117850000D03*
D14*
X146166663Y-58750000D03*
D13*
X50250000Y-77250000D03*
X259650000Y-33250000D03*
D14*
X101300000Y-92800000D03*
D13*
X261950000Y-33250000D03*
D14*
X59000000Y-95750000D03*
D13*
X36300000Y-87750000D03*
X40500000Y-83100000D03*
D14*
X176416666Y-53000000D03*
D13*
X101625400Y-47218600D03*
D14*
X48750000Y-141750000D03*
X138999997Y-50000000D03*
D13*
X156600000Y-38000000D03*
X255050000Y-33250000D03*
X243550000Y-33250000D03*
X236650000Y-33250000D03*
X63250000Y-75750000D03*
X57750000Y-100000000D03*
X63750000Y-99750000D03*
%TD*%
%TA.AperFunction,Conductor*%
%TO.N,GND*%
G36*
X275000641Y-32000006D02*
G01*
X275213481Y-32002328D01*
X275222915Y-32002792D01*
X275647552Y-32039943D01*
X275658270Y-32041354D01*
X276077393Y-32115256D01*
X276087921Y-32117590D01*
X276499033Y-32227747D01*
X276509322Y-32230992D01*
X276909255Y-32376555D01*
X276919221Y-32380683D01*
X277304942Y-32560547D01*
X277314528Y-32565538D01*
X277683088Y-32778326D01*
X277692207Y-32784135D01*
X278040820Y-33028237D01*
X278049402Y-33034822D01*
X278375420Y-33308383D01*
X278383395Y-33315692D01*
X278684307Y-33616604D01*
X278691616Y-33624579D01*
X278965177Y-33950597D01*
X278971762Y-33959179D01*
X279215864Y-34307792D01*
X279221676Y-34316916D01*
X279434459Y-34685467D01*
X279439454Y-34695062D01*
X279619310Y-35080764D01*
X279623450Y-35090759D01*
X279769003Y-35490664D01*
X279772256Y-35500980D01*
X279882405Y-35912061D01*
X279884746Y-35922623D01*
X279958644Y-36341725D01*
X279960056Y-36352450D01*
X279997206Y-36777073D01*
X279997671Y-36786527D01*
X279999993Y-36999357D01*
X280000000Y-37000710D01*
X280000000Y-147999289D01*
X279999993Y-148000642D01*
X279997671Y-148213472D01*
X279997206Y-148222926D01*
X279960056Y-148647549D01*
X279958644Y-148658274D01*
X279884746Y-149077376D01*
X279882405Y-149087938D01*
X279772256Y-149499019D01*
X279769003Y-149509335D01*
X279623450Y-149909240D01*
X279619310Y-149919235D01*
X279439454Y-150304937D01*
X279434459Y-150314532D01*
X279221676Y-150683083D01*
X279215864Y-150692207D01*
X278971762Y-151040820D01*
X278965177Y-151049402D01*
X278691616Y-151375420D01*
X278684307Y-151383395D01*
X278383395Y-151684307D01*
X278375420Y-151691616D01*
X278049402Y-151965177D01*
X278040820Y-151971762D01*
X277692207Y-152215864D01*
X277683083Y-152221676D01*
X277314532Y-152434459D01*
X277304937Y-152439454D01*
X276919235Y-152619310D01*
X276909240Y-152623450D01*
X276509335Y-152769003D01*
X276499019Y-152772256D01*
X276087938Y-152882405D01*
X276077376Y-152884746D01*
X275658274Y-152958644D01*
X275647549Y-152960056D01*
X275222926Y-152997206D01*
X275213472Y-152997671D01*
X275005455Y-152999940D01*
X275000640Y-152999993D01*
X274999290Y-153000000D01*
X29000653Y-153000000D01*
X28999339Y-152999993D01*
X28786549Y-152997738D01*
X28777056Y-152997273D01*
X28352444Y-152960124D01*
X28341719Y-152958712D01*
X27922605Y-152884811D01*
X27912044Y-152882470D01*
X27706503Y-152827396D01*
X27500958Y-152772320D01*
X27490649Y-152769070D01*
X27090730Y-152623511D01*
X27080738Y-152619373D01*
X26695031Y-152439514D01*
X26685436Y-152434519D01*
X26316874Y-152221729D01*
X26307751Y-152215917D01*
X25959144Y-151971820D01*
X25950562Y-151965235D01*
X25624534Y-151691666D01*
X25616558Y-151684357D01*
X25315642Y-151383441D01*
X25308333Y-151375465D01*
X25034764Y-151049437D01*
X25028179Y-151040855D01*
X24784082Y-150692248D01*
X24778270Y-150683125D01*
X24565480Y-150314563D01*
X24560485Y-150304968D01*
X24560471Y-150304937D01*
X24380615Y-149919235D01*
X24376492Y-149909281D01*
X24230924Y-149509335D01*
X24227683Y-149499056D01*
X24117525Y-149087938D01*
X24115188Y-149077394D01*
X24041287Y-148658280D01*
X24039875Y-148647555D01*
X24035366Y-148596019D01*
X24002725Y-148222926D01*
X24002261Y-148213465D01*
X24000007Y-148000642D01*
X24000000Y-147999346D01*
X24000000Y-112949986D01*
X84478553Y-112949986D01*
X84478553Y-112950000D01*
X84478553Y-134950000D01*
X84480960Y-135048245D01*
X84480960Y-135048254D01*
X84480961Y-135048263D01*
X84519295Y-135240986D01*
X84519297Y-135240993D01*
X84594497Y-135422546D01*
X84594501Y-135422553D01*
X84703669Y-135585941D01*
X84703674Y-135585948D01*
X84842618Y-135724897D01*
X84842622Y-135724901D01*
X85006012Y-135834081D01*
X85006010Y-135834081D01*
X85187560Y-135909289D01*
X85187561Y-135909289D01*
X85187563Y-135909290D01*
X85380297Y-135947635D01*
X85472350Y-135949850D01*
X85478550Y-135950000D01*
X85478553Y-135950000D01*
X102771432Y-135950000D01*
X102771446Y-135950000D01*
X102869697Y-135947588D01*
X102869706Y-135947586D01*
X102869708Y-135947586D01*
X102964739Y-135928679D01*
X103062423Y-135909245D01*
X103243965Y-135834040D01*
X103407348Y-135724864D01*
X103546294Y-135585913D01*
X103655462Y-135422525D01*
X103730658Y-135240979D01*
X103768993Y-135048251D01*
X103771446Y-134950000D01*
X103771446Y-112950000D01*
X103769197Y-112851732D01*
X103730853Y-112658973D01*
X103730852Y-112658972D01*
X103730851Y-112658966D01*
X103655672Y-112477476D01*
X103655640Y-112477398D01*
X103546447Y-112313987D01*
X103407471Y-112175019D01*
X103407467Y-112175016D01*
X103407465Y-112175014D01*
X103244060Y-112065838D01*
X103244055Y-112065835D01*
X103062475Y-111990631D01*
X102869721Y-111952298D01*
X102869710Y-111952297D01*
X102771451Y-111950000D01*
X102771446Y-111950000D01*
X85478553Y-111950000D01*
X85386852Y-111952251D01*
X85380301Y-111952412D01*
X85380290Y-111952413D01*
X85187581Y-111990753D01*
X85187570Y-111990756D01*
X85006033Y-112065959D01*
X84842652Y-112175134D01*
X84842648Y-112175138D01*
X84703710Y-112314081D01*
X84703705Y-112314088D01*
X84594542Y-112477468D01*
X84594538Y-112477475D01*
X84519342Y-112659019D01*
X84519340Y-112659026D01*
X84481007Y-112851740D01*
X84481006Y-112851755D01*
X84478553Y-112949986D01*
X24000000Y-112949986D01*
X24000000Y-57000007D01*
X84500000Y-57000007D01*
X84500000Y-78999992D01*
X84502407Y-79098252D01*
X84502408Y-79098261D01*
X84540742Y-79290979D01*
X84540744Y-79290987D01*
X84615943Y-79472533D01*
X84615948Y-79472543D01*
X84725118Y-79635927D01*
X84725121Y-79635931D01*
X84864068Y-79774878D01*
X84864072Y-79774881D01*
X85027456Y-79884051D01*
X85027460Y-79884053D01*
X85027463Y-79884055D01*
X85209013Y-79959256D01*
X85401746Y-79997593D01*
X85500000Y-80000000D01*
X102792872Y-80000000D01*
X102792893Y-80000000D01*
X102891163Y-79997751D01*
X103083928Y-79959409D01*
X103084298Y-79959256D01*
X103140532Y-79935963D01*
X103265508Y-79884198D01*
X103318970Y-79848475D01*
X103428918Y-79775012D01*
X103428919Y-79775010D01*
X103428926Y-79775006D01*
X103567902Y-79636031D01*
X103677094Y-79472614D01*
X103752307Y-79291034D01*
X103790651Y-79098270D01*
X103792893Y-79000000D01*
X103792893Y-57000000D01*
X103790644Y-56901730D01*
X103752301Y-56708968D01*
X103677088Y-56527389D01*
X103567896Y-56363973D01*
X103567893Y-56363969D01*
X103428926Y-56225002D01*
X103265508Y-56115811D01*
X103265507Y-56115810D01*
X103265505Y-56115809D01*
X103265502Y-56115807D01*
X103265497Y-56115805D01*
X103083929Y-56040598D01*
X103083927Y-56040597D01*
X103083926Y-56040597D01*
X102988853Y-56021686D01*
X102891159Y-56002255D01*
X102792908Y-56000000D01*
X102792893Y-56000000D01*
X85500000Y-56000000D01*
X85401746Y-56002407D01*
X85401744Y-56002407D01*
X85401738Y-56002408D01*
X85209020Y-56040742D01*
X85209012Y-56040744D01*
X85027466Y-56115943D01*
X85027456Y-56115948D01*
X84864072Y-56225118D01*
X84864068Y-56225121D01*
X84725121Y-56364068D01*
X84725118Y-56364072D01*
X84615948Y-56527456D01*
X84615943Y-56527466D01*
X84540744Y-56709012D01*
X84540742Y-56709020D01*
X84502408Y-56901738D01*
X84502407Y-56901747D01*
X84500000Y-57000007D01*
X24000000Y-57000007D01*
X24000000Y-37000710D01*
X24000007Y-36999358D01*
X24002328Y-36786528D01*
X24002793Y-36777073D01*
X24039943Y-36352450D01*
X24041355Y-36341725D01*
X24115257Y-35922602D01*
X24117589Y-35912083D01*
X24227749Y-35500959D01*
X24230989Y-35490683D01*
X24376558Y-35090736D01*
X24380679Y-35080786D01*
X24560552Y-34695047D01*
X24565532Y-34685480D01*
X24778332Y-34316900D01*
X24784125Y-34307806D01*
X25028246Y-33959165D01*
X25034812Y-33950609D01*
X25308394Y-33624566D01*
X25315681Y-33616615D01*
X25616615Y-33315681D01*
X25624566Y-33308394D01*
X25950609Y-33034812D01*
X25959165Y-33028246D01*
X26307806Y-32784125D01*
X26316900Y-32778332D01*
X26685480Y-32565532D01*
X26695047Y-32560552D01*
X27080786Y-32380679D01*
X27090736Y-32376558D01*
X27490683Y-32230989D01*
X27500959Y-32227749D01*
X27912083Y-32117589D01*
X27922602Y-32115257D01*
X28341732Y-32041353D01*
X28352444Y-32039943D01*
X28777085Y-32002792D01*
X28786517Y-32002328D01*
X28999358Y-32000006D01*
X29000710Y-32000000D01*
X274999290Y-32000000D01*
X275000641Y-32000006D01*
G37*
%TD.AperFunction*%
%TD*%
M02*
