%TF.GenerationSoftware,KiCad,Pcbnew,8.0.4-8.0.4-0~ubuntu22.04.1*%
%TF.CreationDate,2024-09-01T09:55:57+02:00*%
%TF.ProjectId,Forte_PA_Deck,466f7274-655f-4504-915f-4465636b2e6b,1.0*%
%TF.SameCoordinates,Original*%
%TF.FileFunction,Soldermask,Bot*%
%TF.FilePolarity,Negative*%
%FSLAX46Y46*%
G04 Gerber Fmt 4.6, Leading zero omitted, Abs format (unit mm)*
G04 Created by KiCad (PCBNEW 8.0.4-8.0.4-0~ubuntu22.04.1) date 2024-09-01 09:55:57*
%MOMM*%
%LPD*%
G01*
G04 APERTURE LIST*
%ADD10C,5.100000*%
%ADD11C,5.075000*%
%ADD12C,4.000000*%
%ADD13O,1.600000X1.600000*%
%ADD14O,3.600000X3.600000*%
%ADD15O,2.500000X4.500000*%
G04 APERTURE END LIST*
D10*
X273550000Y-147000000D02*
G75*
G02*
X268450000Y-147000000I-2550000J0D01*
G01*
X268450000Y-147000000D02*
G75*
G02*
X273550000Y-147000000I2550000J0D01*
G01*
X168550000Y-41000000D02*
G75*
G02*
X163450000Y-41000000I-2550000J0D01*
G01*
X163450000Y-41000000D02*
G75*
G02*
X168550000Y-41000000I2550000J0D01*
G01*
D11*
X97537500Y-95750000D02*
G75*
G02*
X92462500Y-95750000I-2537500J0D01*
G01*
X92462500Y-95750000D02*
G75*
G02*
X97537500Y-95750000I2537500J0D01*
G01*
D10*
X273550000Y-41000000D02*
G75*
G02*
X268450000Y-41000000I-2550000J0D01*
G01*
X268450000Y-41000000D02*
G75*
G02*
X273550000Y-41000000I2550000J0D01*
G01*
X33550000Y-41000000D02*
G75*
G02*
X28450000Y-41000000I-2550000J0D01*
G01*
X28450000Y-41000000D02*
G75*
G02*
X33550000Y-41000000I2550000J0D01*
G01*
X33550000Y-147000000D02*
G75*
G02*
X28450000Y-147000000I-2550000J0D01*
G01*
X28450000Y-147000000D02*
G75*
G02*
X33550000Y-147000000I2550000J0D01*
G01*
X168550000Y-147000000D02*
G75*
G02*
X163450000Y-147000000I-2550000J0D01*
G01*
X163450000Y-147000000D02*
G75*
G02*
X168550000Y-147000000I2550000J0D01*
G01*
D11*
X201537500Y-96000000D02*
G75*
G02*
X196462500Y-96000000I-2537500J0D01*
G01*
X196462500Y-96000000D02*
G75*
G02*
X201537500Y-96000000I2537500J0D01*
G01*
D12*
%TO.C,J4*%
X256790000Y-128000000D03*
X256790000Y-138800000D03*
X262000000Y-128000000D03*
X262000000Y-138800000D03*
X267210000Y-128000000D03*
X267210000Y-138800000D03*
%TD*%
D13*
%TO.C,TH1*%
X94750000Y-54000000D03*
%TD*%
%TO.C,TH3*%
X81750000Y-117440000D03*
%TD*%
D14*
%TO.C,Q2*%
X94050000Y-127860000D03*
D15*
X94050000Y-108000000D03*
%TD*%
D14*
%TO.C,Q1*%
X94050000Y-63940000D03*
D15*
X94050000Y-83800000D03*
%TD*%
D13*
%TO.C,TH2*%
X81800000Y-74560000D03*
%TD*%
G36*
X275000642Y-32000007D02*
G01*
X275213471Y-32002328D01*
X275222926Y-32002793D01*
X275647549Y-32039943D01*
X275658274Y-32041355D01*
X276077376Y-32115253D01*
X276087938Y-32117594D01*
X276499019Y-32227743D01*
X276509335Y-32230996D01*
X276909240Y-32376549D01*
X276919235Y-32380689D01*
X277304937Y-32560545D01*
X277314532Y-32565540D01*
X277683083Y-32778323D01*
X277692207Y-32784135D01*
X278040820Y-33028237D01*
X278049402Y-33034822D01*
X278375420Y-33308383D01*
X278383395Y-33315692D01*
X278684307Y-33616604D01*
X278691616Y-33624579D01*
X278965177Y-33950597D01*
X278971762Y-33959179D01*
X279215864Y-34307792D01*
X279221676Y-34316916D01*
X279434459Y-34685467D01*
X279439454Y-34695062D01*
X279619310Y-35080764D01*
X279623450Y-35090759D01*
X279769003Y-35490664D01*
X279772256Y-35500980D01*
X279882405Y-35912061D01*
X279884746Y-35922623D01*
X279958644Y-36341725D01*
X279960056Y-36352450D01*
X279997206Y-36777073D01*
X279997671Y-36786527D01*
X279999993Y-36999357D01*
X280000000Y-37000710D01*
X280000000Y-147999289D01*
X279999993Y-148000642D01*
X279997671Y-148213472D01*
X279997206Y-148222926D01*
X279960056Y-148647549D01*
X279958644Y-148658274D01*
X279884746Y-149077376D01*
X279882405Y-149087938D01*
X279772256Y-149499019D01*
X279769003Y-149509335D01*
X279623450Y-149909240D01*
X279619310Y-149919235D01*
X279439454Y-150304937D01*
X279434459Y-150314532D01*
X279221676Y-150683083D01*
X279215864Y-150692207D01*
X278971762Y-151040820D01*
X278965177Y-151049402D01*
X278691616Y-151375420D01*
X278684307Y-151383395D01*
X278383395Y-151684307D01*
X278375420Y-151691616D01*
X278049402Y-151965177D01*
X278040820Y-151971762D01*
X277692207Y-152215864D01*
X277683083Y-152221676D01*
X277314532Y-152434459D01*
X277304937Y-152439454D01*
X276919235Y-152619310D01*
X276909240Y-152623450D01*
X276509335Y-152769003D01*
X276499019Y-152772256D01*
X276087938Y-152882405D01*
X276077376Y-152884746D01*
X275658274Y-152958644D01*
X275647549Y-152960056D01*
X275222926Y-152997206D01*
X275213472Y-152997671D01*
X275000643Y-152999993D01*
X274999290Y-153000000D01*
X29000653Y-153000000D01*
X28999339Y-152999993D01*
X28786549Y-152997738D01*
X28777056Y-152997273D01*
X28352444Y-152960124D01*
X28341719Y-152958712D01*
X27922605Y-152884811D01*
X27912044Y-152882470D01*
X27500962Y-152772322D01*
X27490645Y-152769069D01*
X27090733Y-152623513D01*
X27080738Y-152619373D01*
X26695031Y-152439514D01*
X26685436Y-152434519D01*
X26316874Y-152221729D01*
X26307751Y-152215917D01*
X25959144Y-151971820D01*
X25950562Y-151965235D01*
X25624534Y-151691666D01*
X25616558Y-151684357D01*
X25315642Y-151383441D01*
X25308333Y-151375465D01*
X25034764Y-151049437D01*
X25028179Y-151040855D01*
X24784082Y-150692248D01*
X24778270Y-150683125D01*
X24565480Y-150314563D01*
X24560485Y-150304968D01*
X24380626Y-149919261D01*
X24376486Y-149909266D01*
X24230930Y-149509354D01*
X24227677Y-149499037D01*
X24117529Y-149087955D01*
X24115188Y-149077394D01*
X24041287Y-148658280D01*
X24039875Y-148647555D01*
X24002726Y-148222943D01*
X24002261Y-148213449D01*
X24000007Y-148000659D01*
X24000000Y-147999346D01*
X24000000Y-112949986D01*
X84478553Y-112949986D01*
X84478553Y-134949992D01*
X84480960Y-135048254D01*
X84480961Y-135048263D01*
X84519295Y-135240986D01*
X84519297Y-135240993D01*
X84594497Y-135422546D01*
X84594501Y-135422553D01*
X84703669Y-135585941D01*
X84703674Y-135585948D01*
X84842618Y-135724897D01*
X84842622Y-135724901D01*
X85006012Y-135834081D01*
X85006010Y-135834081D01*
X85187560Y-135909289D01*
X85380300Y-135947634D01*
X85478550Y-135950000D01*
X102771432Y-135950000D01*
X102869697Y-135947587D01*
X102869708Y-135947586D01*
X103062417Y-135909246D01*
X103062428Y-135909243D01*
X103243965Y-135834040D01*
X103407348Y-135724863D01*
X103407352Y-135724860D01*
X103546291Y-135585915D01*
X103546296Y-135585909D01*
X103655457Y-135422532D01*
X103655463Y-135422522D01*
X103730657Y-135240978D01*
X103730659Y-135240975D01*
X103768992Y-135048258D01*
X103768993Y-135048245D01*
X103771446Y-134950015D01*
X103771446Y-112950021D01*
X103769195Y-112851725D01*
X103730854Y-112658977D01*
X103730851Y-112658966D01*
X103655642Y-112477404D01*
X103655639Y-112477398D01*
X103546447Y-112313989D01*
X103407467Y-112175016D01*
X103407465Y-112175014D01*
X103244060Y-112065838D01*
X103244055Y-112065835D01*
X103062475Y-111990631D01*
X102869721Y-111952298D01*
X102869710Y-111952297D01*
X102771451Y-111950000D01*
X85478567Y-111950000D01*
X85380301Y-111952412D01*
X85380290Y-111952413D01*
X85187581Y-111990753D01*
X85187570Y-111990756D01*
X85006033Y-112065959D01*
X84842652Y-112175134D01*
X84842648Y-112175138D01*
X84703710Y-112314081D01*
X84703705Y-112314088D01*
X84594542Y-112477468D01*
X84594538Y-112477475D01*
X84519342Y-112659019D01*
X84519340Y-112659026D01*
X84481007Y-112851740D01*
X84481006Y-112851755D01*
X84478553Y-112949986D01*
X24000000Y-112949986D01*
X24000000Y-57000007D01*
X84500000Y-57000007D01*
X84500000Y-78999992D01*
X84502407Y-79098252D01*
X84502408Y-79098261D01*
X84540742Y-79290979D01*
X84540744Y-79290987D01*
X84615943Y-79472533D01*
X84615948Y-79472543D01*
X84725118Y-79635927D01*
X84725121Y-79635931D01*
X84864068Y-79774878D01*
X84864072Y-79774881D01*
X85027456Y-79884051D01*
X85027466Y-79884056D01*
X85209012Y-79959255D01*
X85209020Y-79959257D01*
X85401738Y-79997591D01*
X85401747Y-79997592D01*
X85500008Y-80000000D01*
X102792872Y-80000000D01*
X102891164Y-79997750D01*
X103083930Y-79959408D01*
X103083938Y-79959405D01*
X103265500Y-79884201D01*
X103265518Y-79884191D01*
X103428918Y-79775012D01*
X103428921Y-79775009D01*
X103567905Y-79636026D01*
X103677090Y-79472620D01*
X103677095Y-79472611D01*
X103752306Y-79291034D01*
X103752308Y-79291028D01*
X103790650Y-79098277D01*
X103790650Y-79098273D01*
X103792893Y-78999988D01*
X103792893Y-57000021D01*
X103790642Y-56901723D01*
X103752302Y-56708975D01*
X103752300Y-56708967D01*
X103677089Y-56527391D01*
X103567896Y-56363973D01*
X103567893Y-56363969D01*
X103428926Y-56225002D01*
X103265508Y-56115811D01*
X103265497Y-56115805D01*
X103083929Y-56040598D01*
X103083925Y-56040597D01*
X102891159Y-56002255D01*
X102792908Y-56000000D01*
X85500008Y-56000000D01*
X85401747Y-56002407D01*
X85401738Y-56002408D01*
X85209020Y-56040742D01*
X85209012Y-56040744D01*
X85027466Y-56115943D01*
X85027456Y-56115948D01*
X84864072Y-56225118D01*
X84864068Y-56225121D01*
X84725121Y-56364068D01*
X84725118Y-56364072D01*
X84615948Y-56527456D01*
X84615943Y-56527466D01*
X84540744Y-56709012D01*
X84540742Y-56709020D01*
X84502408Y-56901738D01*
X84502407Y-56901747D01*
X84500000Y-57000007D01*
X24000000Y-57000007D01*
X24000000Y-37000710D01*
X24000007Y-36999358D01*
X24002328Y-36786528D01*
X24002793Y-36777073D01*
X24039943Y-36352450D01*
X24041355Y-36341725D01*
X24115253Y-35922623D01*
X24117594Y-35912061D01*
X24227743Y-35500980D01*
X24230996Y-35490664D01*
X24376549Y-35090759D01*
X24380689Y-35080764D01*
X24560545Y-34695062D01*
X24565540Y-34685467D01*
X24778323Y-34316916D01*
X24784135Y-34307792D01*
X25028237Y-33959179D01*
X25034822Y-33950597D01*
X25308383Y-33624579D01*
X25315692Y-33616604D01*
X25616604Y-33315692D01*
X25624579Y-33308383D01*
X25950597Y-33034822D01*
X25959179Y-33028237D01*
X26307792Y-32784135D01*
X26316916Y-32778323D01*
X26685467Y-32565540D01*
X26695062Y-32560545D01*
X27080764Y-32380689D01*
X27090759Y-32376549D01*
X27490664Y-32230996D01*
X27500980Y-32227743D01*
X27912061Y-32117594D01*
X27922623Y-32115253D01*
X28341725Y-32041355D01*
X28352450Y-32039943D01*
X28777073Y-32002793D01*
X28786528Y-32002328D01*
X28999358Y-32000007D01*
X29000710Y-32000000D01*
X274999290Y-32000000D01*
X275000642Y-32000007D01*
G37*
M02*
